<?xml version="1.0" encoding="utf-8"?>
<!-- Generator: Adobe Illustrator 22.0.0, SVG Export Plug-In . SVG Version: 6.00 Build 0)  -->
<svg version="1.1" xmlns="http://www.w3.org/2000/svg" xmlns:xlink="http://www.w3.org/1999/xlink" x="0px" y="0px"
	 viewBox="0 0 1014.9 921.9" style="enable-background:new 0 0 1014.9 921.9;" xml:space="preserve">
<style type="text/css">
	.st0{display:none;}
	.st1{display:inline;fill:#3949AB;}
	.st2{fill:none;stroke:#AFAFAF;stroke-width:8;stroke-miterlimit:10;}
	.st3{fill:#B39DDB;}
	.st4{fill:url(#SVGID_1_);}
	.st5{fill:url(#SVGID_2_);}
	.st6{fill:url(#SVGID_3_);}
	.st7{fill:url(#SVGID_4_);}
	.st8{fill:#FFECB3;}
	.st9{fill:#FFF8E1;}
	.st10{fill:#02366C;}
	.st11{opacity:0.42;fill:#B2EBF2;}
	.st12{opacity:0.64;fill:#B2EBF2;}
	.st13{fill:none;stroke:#B2B2B2;stroke-width:8;stroke-miterlimit:10;}
	.st14{fill:#E040FB;}
	.st15{fill:url(#SVGID_5_);}
	.st16{fill:#7B0A93;}
	.st17{fill:#087B87;}
	.st18{fill:#FFE0B2;}
	.st19{fill:#0D47A1;}
	.st20{display:inline;}
	.st21{fill:#FFFFFF;}
	.st22{fill:#6B6B6B;}
	.st23{fill:url(#SVGID_6_);}
	.st24{fill:url(#SVGID_7_);}
	.st25{fill:url(#SVGID_8_);}
	.st26{fill:url(#SVGID_9_);}
	.st27{fill:none;stroke:#B5B5B5;stroke-width:3;stroke-miterlimit:10;}
	.st28{fill:none;stroke:#37474F;stroke-width:2;stroke-miterlimit:10;}
	.st29{fill:#25B0C8;}
	.st30{fill:#FF7553;}
	.st31{fill:url(#SVGID_10_);}
	.st32{fill:url(#SVGID_11_);}
	.st33{fill:none;stroke:#FFF8E1;stroke-width:2;stroke-miterlimit:10;}
	.st34{fill:url(#SVGID_12_);}
	.st35{fill:url(#SVGID_13_);}
	.st36{fill:url(#SVGID_14_);}
	.st37{fill:#154577;}
	.st38{fill:none;stroke:#9C9EA0;stroke-width:2;stroke-miterlimit:10;}
	.st39{fill:#139AA8;}
	.st40{fill:url(#SVGID_15_);}
	.st41{fill:#FFCCBC;}
	.st42{fill:url(#SVGID_16_);}
	.st43{fill:url(#SVGID_17_);}
	.st44{fill:url(#SVGID_18_);}
	.st45{fill:url(#SVGID_19_);}
	.st46{fill:#ECEFF1;}
	.st47{fill:#B2EBF2;}
	.st48{fill:#E22970;}
	.st49{fill:url(#SVGID_20_);}
	.st50{fill:url(#SVGID_21_);}
	.st51{fill:#FAFAFA;}
	.st52{fill:url(#SVGID_22_);}
	.st53{fill:url(#SVGID_23_);}
	.st54{fill:url(#SVGID_24_);}
	.st55{fill:url(#SVGID_25_);}
	.st56{fill:url(#SVGID_26_);}
	.st57{fill:url(#SVGID_27_);}
	.st58{fill:url(#SVGID_28_);}
	.st59{fill:url(#SVGID_29_);}
	.st60{fill:url(#SVGID_30_);}
	.st61{fill:url(#SVGID_31_);}
	.st62{fill:url(#SVGID_32_);}
	.st63{fill:url(#SVGID_33_);}
	.st64{fill:url(#SVGID_34_);}
	.st65{clip-path:url(#SVGID_36_);fill:#EFEFEF;}
	.st66{clip-path:url(#SVGID_36_);}
	.st67{opacity:0.88;fill:#E0F7FA;}
	.st68{fill:none;stroke:#026689;stroke-width:10;stroke-miterlimit:10;}
	.st69{fill:url(#SVGID_37_);}
	.st70{fill:url(#SVGID_38_);}
	.st71{fill:url(#SVGID_39_);}
	.st72{fill:none;stroke:#FFF8E1;stroke-width:4;stroke-miterlimit:10;}
	.st73{fill:url(#SVGID_40_);}
	.st74{fill:url(#SVGID_41_);}
	.st75{fill:url(#SVGID_42_);}
	.st76{fill:none;stroke:#FFFFFF;stroke-width:4;stroke-miterlimit:10;}
	.st77{fill:url(#SVGID_43_);}
	.st78{fill:url(#SVGID_44_);}
	.st79{fill:url(#SVGID_45_);}
	.st80{fill:url(#SVGID_46_);}
	.st81{fill:url(#SVGID_47_);}
	.st82{fill:url(#SVGID_48_);}
	.st83{fill:#DBDBDB;}
	.st84{fill:url(#SVGID_49_);}
	.st85{fill:url(#SVGID_50_);}
	.st86{clip-path:url(#SVGID_52_);fill:#EFEFEF;}
	.st87{clip-path:url(#SVGID_52_);}
	.st88{fill:url(#SVGID_53_);}
	.st89{fill:url(#SVGID_54_);}
	.st90{fill:url(#SVGID_55_);}
	.st91{fill:url(#SVGID_56_);}
	.st92{fill:url(#SVGID_57_);}
	.st93{fill:url(#SVGID_58_);}
	.st94{fill:url(#SVGID_59_);}
	.st95{fill:url(#SVGID_60_);}
	.st96{fill:url(#SVGID_61_);}
	.st97{fill:url(#SVGID_62_);}
	.st98{fill:url(#SVGID_63_);}
	.st99{fill:url(#SVGID_64_);}
	.st100{fill:url(#SVGID_65_);}
	.st101{fill:url(#SVGID_66_);}
	.st102{clip-path:url(#SVGID_68_);fill:#EFEFEF;}
	.st103{clip-path:url(#SVGID_68_);}
	.st104{fill:url(#SVGID_69_);}
	.st105{fill:url(#SVGID_70_);}
	.st106{fill:url(#SVGID_71_);}
	.st107{fill:url(#SVGID_72_);}
	.st108{fill:url(#SVGID_73_);}
	.st109{fill:url(#SVGID_74_);}
	.st110{fill:url(#SVGID_75_);}
	.st111{fill:url(#SVGID_76_);}
	.st112{fill:url(#SVGID_77_);}
	.st113{fill:url(#SVGID_78_);}
	.st114{fill:url(#SVGID_79_);}
	.st115{fill:url(#SVGID_80_);}
	.st116{fill:url(#SVGID_81_);}
	.st117{fill:#303F9F;}
	.st118{fill:url(#SVGID_82_);}
	.st119{fill:url(#SVGID_83_);}
	.st120{fill:#F5F5F5;}
	.st121{fill:#063982;}
	.st122{fill:#A5A5A5;}
	.st123{fill:#CCCCCC;}
	.st124{fill:#8C8C8C;}
	.st125{fill:#F57C00;}
	.st126{fill:#B25400;}
	.st127{fill:url(#SVGID_84_);}
	.st128{fill:url(#SVGID_85_);}
	.st129{fill:#EFEFEF;}
	.st130{fill:url(#SVGID_86_);}
	.st131{fill:none;stroke:#565656;stroke-width:3;stroke-linecap:round;stroke-linejoin:round;stroke-miterlimit:10;}
	.st132{fill:#BDBDBD;}
	.st133{fill:#E8E8E8;}
	.st134{fill:#F7F7F7;}
	.st135{clip-path:url(#SVGID_88_);}
	.st136{fill:#D1D1D1;}
	.st137{fill:#FF3D00;}
	.st138{fill:none;stroke:#FDD835;stroke-width:2;stroke-miterlimit:10;}
	.st139{fill:#26C6DA;}
	.st140{fill:#FFECCA;}
	.st141{fill:url(#SVGID_89_);}
	.st142{fill:#546E7A;}
	.st143{fill:url(#SVGID_90_);}
	.st144{fill:#00555B;}
	.st145{fill:#FFD600;}
	.st146{fill:url(#SVGID_91_);}
	.st147{fill:url(#SVGID_92_);}
	.st148{fill:url(#SVGID_93_);}
	.st149{fill:url(#SVGID_94_);}
	.st150{fill:url(#SVGID_95_);}
	.st151{fill:#D3D3D3;}
	.st152{fill:#BCBCBC;}
	.st153{fill:url(#SVGID_96_);}
	.st154{fill:url(#SVGID_97_);}
	.st155{fill:url(#SVGID_98_);}
	.st156{fill:#0277BD;}
	.st157{fill:#046799;}
	.st158{fill:#455A64;}
	.st159{fill:url(#SVGID_99_);}
	.st160{fill:url(#SVGID_100_);}
	.st161{fill:url(#SVGID_101_);}
	.st162{fill:url(#SVGID_102_);}
	.st163{fill:none;stroke:#FFFFFF;stroke-width:2;stroke-miterlimit:10;}
	.st164{fill:#2F4249;}
	.st165{fill:#D84315;}
	.st166{fill:none;stroke:#FFFFFF;stroke-linecap:round;stroke-linejoin:round;stroke-miterlimit:10;}
	.st167{fill:none;stroke:#EFEBE9;stroke-width:0.25;stroke-miterlimit:10;}
	.st168{fill:#37474F;}
	.st169{fill:#E3E4E5;}
	.st170{fill:none;stroke:#EFEBE9;stroke-width:3;stroke-linecap:round;stroke-linejoin:round;stroke-miterlimit:10;}
	.st171{fill:none;stroke:#3A3A3A;stroke-width:3;stroke-miterlimit:10;}
	.st172{fill:none;stroke:#B7B7B7;stroke-width:0.75;stroke-miterlimit:10;}
</style>
<g id="Layer_1" class="st0">
</g>
<g id="Navigation">
	<g>
		<defs>
			<path id="SVGID_51_" d="M990.3,118.5c0,0,25.1-153.5-159.3-57.9S593.5,83.8,370.4,29.7S-25.5,174.5,49.8,329s41.5,186.4,34.8,282
				S213,882.3,451.5,766.5s117.8,147.7,263.6,139s282.9-105.3,276.2-288.7C984.6,433.3,990.3,118.5,990.3,118.5z"/>
		</defs>
		<clipPath id="SVGID_1_">
			<use xlink:href="#SVGID_51_"  style="overflow:visible;"/>
		</clipPath>
		<path style="clip-path:url(#SVGID_1_);fill:#EFEFEF;" d="M996,112.5c0,0,25.3-154.7-160.6-58.4S596,77.5,371.2,23
			S-27.9,169,48,324.6s41.9,187.8,35,284.1c-6.8,96.3,129.4,273.4,369.9,156.7s118.7,148.9,265.7,140.1S1003.8,799.5,997,614.6
			C990.2,429.7,996,112.5,996,112.5z"/>
		<g style="clip-path:url(#SVGID_1_);">
			<path class="st10" d="M169.1,283.3c-17.1,21.9-49.7,50.1-111.9,79.5c-6.6,3.1-12.7,6-18.5,8.6v-88.1H169.1z"/>
			<polygon class="st67" points="616.8,287.6 1017.4,428.2 1017.4,952.4 615.4,760.6 			"/>
			<rect x="38.7" y="283.3" class="st67" width="502.8" height="409.3"/>
			<line class="st68" x1="798.7" y1="351.5" x2="798.7" y2="848"/>
			<polygon class="st68" points="616.8,287.6 1017.4,428.2 1017.4,952.4 615.4,760.6 			"/>
			<line class="st68" x1="299.7" y1="283.3" x2="299.7" y2="709.5"/>
			<polygon class="st68" points="38.7,658.3 38.7,283.3 541.5,283.3 541.5,692.6 38.7,692.6 			"/>
			<path class="st14" d="M240.4,617.1c0,0,1.4,29.8-1.4,45.5c-2.8,15.6-12.8,0-12.8,0s-7.1-45.5,2.8-56.8
				C239,594.4,240.4,617.1,240.4,617.1z"/>
			<linearGradient id="SVGID_2_" gradientUnits="userSpaceOnUse" x1="168.3947" y1="738.585" x2="168.3947" y2="536.6139">
				<stop  offset="0" style="stop-color:#FF4081"/>
				<stop  offset="0.237" style="stop-color:#FE377B"/>
				<stop  offset="0.6294" style="stop-color:#FA1D6A"/>
				<stop  offset="0.9944" style="stop-color:#F50057"/>
			</linearGradient>
			<path class="st5" d="M204.4,488.6c0,0,40.3,13.5,33.2,83.1S224.8,664,224.8,664l-116.5,11.4c0,0-24.1-103.7,2.8-137.8
				C138.1,503.5,149.9,469.4,204.4,488.6z"/>
			<path class="st16" d="M238.8,403.1c0,0,10.2,36.3-17.7,56.1c-27.9,19.7-7-51.6-7-51.6L238.8,403.1z"/>
			<path class="st17" d="M669.4,524.8c0,0-14.2,140.6-36.9,198.9s-127.8-45.5-127.8-45.5s-6.6-141.1,0-171.9
				C511.2,475.6,669.4,524.8,669.4,524.8z"/>
			<polygon class="st18" points="369.7,395.6 317.1,458.1 335.6,466.6 388.5,422.2 			"/>
			<g>
				<path class="st30" d="M649.5,602.9c0,0-34.1,62.5-25.6,112.2l12.8,4.3c0,0,15.6-49.7,28.4-73.9c11.8-22.4,19.5-51.5,6.9-54.9
					C659.4,587.3,649.5,602.9,649.5,602.9z"/>
				<linearGradient id="SVGID_3_" gradientUnits="userSpaceOnUse" x1="739.0743" y1="540.9095" x2="739.0743" y2="445.6659">
					<stop  offset="0" style="stop-color:#7B1FA2"/>
					<stop  offset="0.2892" style="stop-color:#721D9E"/>
					<stop  offset="0.7685" style="stop-color:#581792"/>
					<stop  offset="0.9944" style="stop-color:#4A148C"/>
				</linearGradient>
				<path class="st6" d="M716.3,529.1c-13.7-21.4-22.7-63.9,5.2-87.5c6.5-5.5,18-4.7,26.1-2c8.5,2.8,43.7,27.7,18.5,82.4
					c-8.5,18.5-22.2,18.8-31.5,18.8l0,0C725.4,540.7,721.2,536.8,716.3,529.1z"/>
				<ellipse class="st30" cx="734" cy="487.2" rx="27.7" ry="41.9"/>
				<path class="st30" d="M747.5,477.9c-2.9,6.5-4,13-4.6,19.5c-0.5,6.5-0.4,13,0.4,19.5c0.7,6.5,2.1,13,4,19.5
					c2,6.5,4.5,13,8.7,19.5h-42.6c4.2-6.5,6.7-13,8.7-19.5c1.9-6.5,3.3-13,4-19.5c0.8-6.5,0.9-13,0.4-19.5c-0.6-6.5-1.7-13-4.6-19.5
					H747.5z"/>
				<linearGradient id="SVGID_4_" gradientUnits="userSpaceOnUse" x1="736.1407" y1="540.9095" x2="736.1407" y2="445.6659">
					<stop  offset="0" style="stop-color:#7B1FA2"/>
					<stop  offset="0.2892" style="stop-color:#721D9E"/>
					<stop  offset="0.7685" style="stop-color:#581792"/>
					<stop  offset="0.9944" style="stop-color:#4A148C"/>
				</linearGradient>
				<path class="st7" d="M707.7,462.3c0,0,16.3,6.8,36.5-7.3c0,0-20.9,39.9,16,51.3l4.3-32.6l-14-24.9l-23.4-7.8L707.7,462.3z"/>
				<circle class="st72" cx="734.2" cy="487.9" r="13.3"/>
				<circle class="st72" cx="702.9" cy="486.5" r="13.3"/>
				<path class="st30" d="M818.3,607.9c0,0,13,57.6,0.3,113c-12.8,55.4-44,85.2-44,85.2l-12.8-9.9c0,0,22-45.5,25.9-108
					c0,0-11.7-35.5-1.8-62.5C795.8,598.7,818.3,607.9,818.3,607.9z"/>
				<linearGradient id="SVGID_5_" gradientUnits="userSpaceOnUse" x1="726.1978" y1="491.4315" x2="726.1978" y2="776.3333">
					<stop  offset="0" style="stop-color:#039BE5"/>
					<stop  offset="0.3498" style="stop-color:#0CA2E9"/>
					<stop  offset="0.9295" style="stop-color:#26B4F5"/>
					<stop  offset="0.9944" style="stop-color:#29B6F6"/>
				</linearGradient>
				<path class="st15" d="M752.8,550.4c-104.7-22.7-103.3,52.6-103.3,52.6s0.4-0.4,1-1.1c0,0,24.7-17,26.5,10.3
					c-7.9,31.8-43.1,94.5-43.1,94.5l152,68.2c0,0,5.7-54,0-110.8s32.7-52.6,32.7-52.6C815.7,550.4,752.8,550.4,752.8,550.4z"/>
			</g>
			<g>
				<ellipse class="st18" cx="586.3" cy="217.3" rx="27.7" ry="41.9"/>
				<path class="st18" d="M598.4,215.2c-2.9,6.5-4,13-4.6,19.5c-0.5,6.5-0.4,13,0.4,19.5c0.7,6.5,2.1,13,4,19.5
					c2,6.5,4.5,13,8.7,19.5h-42.6c4.2-6.5,6.7-13,8.7-19.5c1.9-6.5,3.3-13,4-19.5c0.8-6.5,0.9-13,0.4-19.5c-0.6-6.5-1.7-13-4.6-19.5
					H598.4z"/>
				<linearGradient id="SVGID_6_" gradientUnits="userSpaceOnUse" x1="487.9417" y1="541.3766" x2="632.1145" y2="159.9932">
					<stop  offset="0" style="stop-color:#26C6DA"/>
					<stop  offset="0.2807" style="stop-color:#1FBDD1"/>
					<stop  offset="0.7459" style="stop-color:#0CA6B7"/>
					<stop  offset="0.9944" style="stop-color:#0097A7"/>
				</linearGradient>
				<path class="st23" d="M541,278.9c-30.7,7.4-109.1,33.8-177,119.5l39.8,34.1c0,0,83.8-71,126.4-49.7c0,0-18,30.7-25.6,49.7
					c-14.2,35.5-38.4,95.2,23.5,149.3c4.4,3.9,7.4,8.3,10.6,10.8c18.5,14.6,106.6,12.5,126.4-49.3c69.6-217.3-71-265.6-71-265.6
					l-30.2-1.1C556.2,276.3,548.5,277.1,541,278.9z"/>
				<polygon class="st18" points="570,526.2 513.1,612.9 528.8,621.4 605.1,545.3 				"/>
				<path class="st18" d="M513.1,612.9c0,0-12.8-1.4-25.6,12.8c-12.8,14.2-28.4,29.8-28.4,29.8s15.6-4.3,27-17
					c0,0,15.6,12.8,31.2,8.5c15.6-4.3,11.4-25.6,11.4-25.6L513.1,612.9z"/>
				<linearGradient id="SVGID_7_" gradientUnits="userSpaceOnUse" x1="501.737" y1="546.5916" x2="645.9098" y2="165.2082">
					<stop  offset="0" style="stop-color:#26C6DA"/>
					<stop  offset="0.2807" style="stop-color:#1FBDD1"/>
					<stop  offset="0.7459" style="stop-color:#0CA6B7"/>
					<stop  offset="0.9944" style="stop-color:#0097A7"/>
				</linearGradient>
				<path class="st24" d="M598.4,408.3c-2.8-1.4,7.9-81.2-8.1-130.8h-31.1c0,0,10.9,48.4,15.1,59.8c4.3,11.4,0,59.7,0,59.7
					L598.4,408.3z"/>
				<path class="st37" d="M584,196c1.2-1.1,2.9-1.3,4.3-0.5c6.7,3.9,23.7,13.5,27.1,11.2c13.5-9-1.4-41.2-29.8-39.8
					c-27.2,1.4-37,24.8-29,34.9c1,1.3,2.7,1.9,4.4,1.7C566.2,202.7,579.2,200.3,584,196z"/>
				<circle class="st76" cx="600.7" cy="218" r="13.3"/>
				<circle class="st76" cx="569.1" cy="218" r="13.3"/>
				<path class="st39" d="M568.5,529.1L568.5,529.1c-0.9-4.4-0.2-9,2-12.9c8.7-15.7,30.1-61.4,22.1-116.3
					c-9.9-68.2-1.4-63.9-1.4-63.9l29.8,15.6l7.1,86.6L614,485L568.5,529.1z"/>
				<linearGradient id="SVGID_8_" gradientUnits="userSpaceOnUse" x1="557.7175" y1="567.7537" x2="701.8903" y2="186.3703">
					<stop  offset="0" style="stop-color:#26C6DA"/>
					<stop  offset="0.2807" style="stop-color:#1FBDD1"/>
					<stop  offset="0.7459" style="stop-color:#0CA6B7"/>
					<stop  offset="0.9944" style="stop-color:#0097A7"/>
				</linearGradient>
				<path class="st25" d="M580.6,276.9c0,0,179.7-14.9,63.2,293.3l-76-41.9c0,0,59.7-58.2,17-169L580.6,276.9z"/>
			</g>
			<ellipse class="st41" cx="349.1" cy="404.8" rx="27.7" ry="41.9"/>
			
				<ellipse transform="matrix(0.168 -0.9858 0.9858 0.168 -261.1347 560.5054)" class="st14" cx="201.5" cy="435" rx="41.9" ry="27.7"/>
			<path class="st41" d="M361.1,395.6c-2.9,6.5-4,13-4.6,19.5c-0.5,6.5-0.4,13,0.4,19.5c0.7,6.5,2.1,13,4,19.5
				c2,6.5,4.5,13,8.7,19.5h-42.6c4.2-6.5,6.7-13,8.7-19.5c1.9-6.5,3.3-13,4-19.5c0.8-6.5,0.9-13,0.4-19.5c-0.6-6.5-1.7-13-4.6-19.5
				H361.1z"/>
			<linearGradient id="SVGID_9_" gradientUnits="userSpaceOnUse" x1="311.2379" y1="389.7249" x2="385.7524" y2="389.7249">
				<stop  offset="0" style="stop-color:#FF7043"/>
				<stop  offset="0.3568" style="stop-color:#FC683A"/>
				<stop  offset="0.9483" style="stop-color:#F55320"/>
				<stop  offset="0.9944" style="stop-color:#F4511E"/>
			</linearGradient>
			<path class="st26" d="M354,371.4c0,0,4.3,15.6-7.1,12.8c-11.4-2.8-9.9,5.7-12.8,9.9s-9.9,2.8-9.9,8.5c0,5.7,4.9,15.1-1.1,16.8
				s-7.4,5.9-10.3-1.2s8.5-12.8,2.8-18.5c-5.7-5.7-5.7-9.9-1.4-12.8c4.3-2.8,4.3,0,8.5-11.4s12.8-17,17-14.2s-2.8-4.3,8.5-4.3
				s17,0,17,5.7c0,5.7,7.1,1.4,11.4,9.9c4.3,8.5,0,8.5,0,12.8s11.4,5.7,8.5,12.8c-2.8,7.1,4.3,14.2-2.8,15.6c-7.1,1.4-7.1,0-7.1-4.3
				c0-4.3-1.4-7.1-4.3-9.9c-2.8-2.8-4.3,1.4-2.8-5.7c1.4-7.1-2.8-1.4-5.7-8.5s2.8-9.9,0-11.4C359.7,372.8,356.9,375.7,354,371.4z"/>
			<linearGradient id="SVGID_10_" gradientUnits="userSpaceOnUse" x1="348.3655" y1="742.8463" x2="348.3655" y2="427.1249">
				<stop  offset="0" style="stop-color:#FF7043"/>
				<stop  offset="0.3568" style="stop-color:#FC683A"/>
				<stop  offset="0.9483" style="stop-color:#F55320"/>
				<stop  offset="0.9944" style="stop-color:#F4511E"/>
			</linearGradient>
			<path class="st31" d="M430.8,655.5H266c0,0,1.4-78.9,10.4-131.2c4.5-26.2,22.9-47.6,47.5-55.9c1-0.3,2-0.7,3-1
				c1-0.3,2.1-0.6,3.2-0.8c1.8-0.4,3.6-0.8,5.4-1.1c11-1.7,22.7-1.9,33.7,1.5c1,0.3,2,0.6,3.1,1c0.3,0.1,0.5,0.2,0.8,0.3
				c8.2,3.2,15.8,8.5,22.2,16.7C429.3,529.1,430.8,591.6,430.8,655.5z"/>
			<linearGradient id="SVGID_11_" gradientUnits="userSpaceOnUse" x1="277.5982" y1="742.8463" x2="277.5982" y2="427.1249">
				<stop  offset="0" style="stop-color:#FF7043"/>
				<stop  offset="0.3568" style="stop-color:#FC683A"/>
				<stop  offset="0.9483" style="stop-color:#F55320"/>
				<stop  offset="0.9944" style="stop-color:#F4511E"/>
			</linearGradient>
			<path class="st32" d="M317.5,470.9c0,0-96.9,36.8-77.1,157.6h32.7C273.1,628.5,303.6,496.6,317.5,470.9z"/>
			<linearGradient id="SVGID_12_" gradientUnits="userSpaceOnUse" x1="411.5214" y1="742.8463" x2="411.5214" y2="427.1249">
				<stop  offset="0" style="stop-color:#FF7043"/>
				<stop  offset="0.3568" style="stop-color:#FC683A"/>
				<stop  offset="0.9483" style="stop-color:#F55320"/>
				<stop  offset="0.9944" style="stop-color:#F4511E"/>
			</linearGradient>
			<path class="st34" d="M365.4,466.6c0,0,102.3,25.6,91.4,161.9h-32.7C424.2,628.5,379.3,492.2,365.4,466.6z"/>
			<polygon class="st41" points="240.4,628.5 247.5,658.3 264.6,658.3 264.6,628.5 			"/>
			<polygon class="st41" points="456.3,628.5 449.2,658.3 432.2,658.3 432.2,628.5 			"/>
			<path class="st21" d="M372.3,468c-1-0.4-2-0.7-3.1-1c1.6,8.6,1.7,16.5,0.3,23.5c-2.3,11.7-11.8,16.3-19.4,16.7
				c-0.1,0-0.2,0-0.2,0c-7.8,0.4-18.1-3.4-21.6-15.2c-3.3-11-2-20.6-1.3-24.7c-1,0.3-2,0.6-3,1c-0.4,2.2-0.7,5.2-0.7,8.8
				c0,4.5,0.5,10,2.3,15.8c3.7,12.5,15,17.6,24.4,17.2c0.1,0,0.2,0,0.3,0c11.2-0.7,19.8-8.1,22-19
				C373.6,484.1,373.6,476.4,372.3,468z"/>
			<path class="st18" d="M304.3,470.5c0,0,3.4-5.1,8.6-6.9c5.1-1.7,13.7-1.7,15.4-3.4c1.7-1.7,4.6,3.4,4.6,3.4l-0.4,3.3
				c-0.4,2.9-2.7,5.2-5.6,5.6c-2.1,0.3-4.3,0.9-5.7,2.1c-3.1,2.7-10,6.1-11.7,6.1C307.8,480.8,297.5,473.9,304.3,470.5z"/>
			<path class="st18" d="M315.5,458.2c0,0-16.7,5-13.2,14.6l18-1.8l6.4-4.7l3-3.5l-3-6.1L315.5,458.2z"/>
			<linearGradient id="SVGID_13_" gradientUnits="userSpaceOnUse" x1="875.9663" y1="1008.0516" x2="875.9663" y2="678.8394">
				<stop  offset="0" style="stop-color:#283593"/>
				<stop  offset="0.2938" style="stop-color:#243E9C"/>
				<stop  offset="0.7805" style="stop-color:#1A58B4"/>
				<stop  offset="0.9944" style="stop-color:#1565C0"/>
			</linearGradient>
			<path class="st35" d="M938.2,821.6c-0.5-11.1-1.6-25.3-2.8-37.8c-0.4-4.6-7.1-4.9-7.9-0.3l-4.2,24.7c-0.5,3-4.1,4.3-6.5,2.4
				l-17.6-15c-2.9-2.5-7.3,0.2-6.4,4v0c1.1,4.4-4.8,6.9-7.2,3l-13.7-21.9c-2.1-3.3-7.3-1.9-7.3,2l-0.5,27c-0.1,4-5.3,5.4-7.4,2
				l-9.7-16c-1.9-3.1-6.6-2.3-7.3,1.3l-2.6,14.2c-0.7,3.8-5.9,4.5-7.5,1l-5.4-11.7c-1.5-3.3-6.3-3-7.4,0.5l-13.5,42.9
				c-0.2,0.6-0.2,1.2-0.1,1.8l6.3,43.1c0.2,1.4,1.2,2.7,2.6,3.2l65.2,23.6c1.3,0.5,2.7,0.2,3.8-0.6l48.2-37.1
				c0.2-0.1,0.4-0.3,0.5-0.5c2.2-2.5,19.1-21.4,19.1-27.7c0-6-8.3-22.5-10.2-26.3C938.3,822.7,938.2,822.2,938.2,821.6z"/>
			<polygon class="st83" points="82.7,655.5 535.9,655.5 824.2,793.3 824.2,1154.1 -84.9,1154.1 -84.9,655.5 			"/>
			<polygon class="st21" points="376.8,666.9 494.7,666.9 568.5,706.6 449.2,706.6 			"/>
			<polygon class="st21" points="244.7,666.9 362.6,666.9 436.4,706.6 317.1,706.6 			"/>
			<path class="st14" d="M175.1,451.3c0,0,13,23.9,6.7,35.8l22.4,3.8c0,0,0.3-18.7,16.9-31.7l-44.8-7.6"/>
			<path class="st16" d="M233,415.1c0,0-4.2,7.9-27.6,1.1s-6.7,39.2-19.6,47.1c-12.9,7.9-17.5,1.3-17.5,1.3s-47.6-75.8,3.6-80.1
				c51.2-4.2,64.9,8.2,64.9,8.2S244.2,399.7,233,415.1z"/>
			<path class="st48" d="M190.7,635.6l2.8-4.3c0,0-42.6-65.3-24.1-95.2s18.5-47.6,18.5-47.6l-38.4,40.5l-9.9,59.7l38.4,46.9H190.7z"
				/>
			<linearGradient id="SVGID_14_" gradientUnits="userSpaceOnUse" x1="230.7367" y1="671.0273" x2="150.4829" y2="559.5242">
				<stop  offset="0" style="stop-color:#FF4081"/>
				<stop  offset="0.237" style="stop-color:#FE377B"/>
				<stop  offset="0.6294" style="stop-color:#FA1D6A"/>
				<stop  offset="0.9944" style="stop-color:#F50057"/>
			</linearGradient>
			<path class="st36" d="M190.7,488.4c0,0-35-27-77.9,37.1c-30,44.8,5.5,125.7,21.1,135.7l56.8-25.8c0,0-35.4-62.8-29.8-85.7
				S190.7,488.4,190.7,488.4z"/>
			<polygon class="st14" points="190.7,635.6 202.1,658.3 260.3,659.8 260.3,672.5 193.5,675.4 166.6,647.3 			"/>
			<path class="st14" d="M256.8,660.2c0,0,4.1-12.2,18.3-8.2c14.3,4.1,14.3,8.2,12.2,16.3c-2,8.2-14.3,12.2-30.6,6.1
				S256.8,660.2,256.8,660.2z"/>
			<linearGradient id="SVGID_15_" gradientUnits="userSpaceOnUse" x1="222.2711" y1="738.585" x2="222.2711" y2="536.6139">
				<stop  offset="0" style="stop-color:#FF4081"/>
				<stop  offset="0.237" style="stop-color:#FE377B"/>
				<stop  offset="0.6294" style="stop-color:#FA1D6A"/>
				<stop  offset="0.9944" style="stop-color:#F50057"/>
			</linearGradient>
			<path class="st40" d="M213.4,493.7c0,0,39.8,16.9,31.2,75.1l-5.5,48.3l-18.7-9.9C220.5,607.2,176.5,526.6,213.4,493.7z"/>
			<circle class="st72" cx="201.5" cy="432.5" r="13.3"/>
			<circle class="st72" cx="232.8" cy="432.5" r="13.3"/>
			<path class="st51" d="M188.7,318.4c-2.4-1-3.9-3.5-3.5-6c0.4-2.6,2.8-4.9,10.8-2.5c14.9,4.3,14.2,0.6,21.7,2.8
				c8.7,2.5,3.7,0.9,11.5,4.3c7.7,3.4,1.9-2.8,14.3-4s20.1,8.1,7.7,9.6s-11.8-2.8-17,3.7c-5.3,6.5-6.8,7.1-11.8,3.4
				c-5-3.7-1.9-12.1-12.1-9.3C202.4,322.5,193.3,320.2,188.7,318.4z"/>
			<path class="st51" d="M348.8,300.8c-1.2-0.5-1.9-1.7-1.7-3c0.2-1.3,1.4-2.4,5.3-1.2c7.3,2.1,7,0.3,10.7,1.4
				c4.3,1.2,1.8,0.5,5.7,2.1c3.8,1.7,0.9-1.4,7-2c6.1-0.6,9.9,4,3.8,4.7s-5.8-1.4-8.4,1.8c-2.6,3.2-3.4,3.5-5.8,1.7
				c-2.4-1.8-0.9-6-6-4.6C355.6,302.8,351.1,301.7,348.8,300.8z"/>
			<path class="st51" d="M722.4,367.5c-1.2-0.5-1.9-1.7-1.7-3c0.2-1.3,1.4-2.4,5.3-1.2c7.3,2.1,7,0.3,10.7,1.4
				c4.3,1.2,1.8,0.5,5.7,2.1c3.8,1.7,0.9-1.4,7-2s9.9,4,3.8,4.7c-6.1,0.8-5.8-1.4-8.4,1.8c-2.6,3.2-3.4,3.5-5.8,1.7
				c-2.4-1.8-0.9-6-6-4.6C729.1,369.6,724.7,368.5,722.4,367.5z"/>
			<path class="st18" d="M572,276.9c0,0,1.6,8.8,12.6,7.8s15.1-6.6,15.1-6.6S580.4,274.1,572,276.9z"/>
			<path class="st30" d="M718.6,546.1c0,0,2.2,9.2,12.6,9.8c10.3,0.7,21.3-5.3,21.3-5.3S737.7,541.6,718.6,546.1z"/>
			<path class="st41" d="M332.6,465.6c0,0,14,3,19,3s13.9-2.7,13.9-2.7S343.6,456.6,332.6,465.6z"/>
		</g>
	</g>
</g>
<g id="Layer_3">
</g>
<g id="Layer_4">
</g>
</svg>
