<?xml version="1.0" encoding="utf-8"?>
<!-- Generator: Adobe Illustrator 22.0.0, SVG Export Plug-In . SVG Version: 6.00 Build 0)  -->
<svg version="1.1" id="Layer_1" xmlns="http://www.w3.org/2000/svg" xmlns:xlink="http://www.w3.org/1999/xlink" x="0px" y="0px"
	 viewBox="0 0 1761 990.6" style="enable-background:new 0 0 1761 990.6;" xml:space="preserve">
<style type="text/css">
	.st0{fill:url(#SVGID_1_);}
	.st1{fill:url(#SVGID_2_);}
	.st2{fill:url(#SVGID_3_);}
	.st3{fill:#1B315D;}
	.st4{fill:url(#SVGID_4_);}
	.st5{fill:url(#SVGID_5_);}
	.st6{fill:url(#SVGID_6_);}
	.st7{fill:url(#SVGID_7_);}
	.st8{opacity:0.2;fill:#FFFFFF;}
	.st9{fill:#B0E2FA;}
	.st10{fill:url(#SVGID_8_);}
	.st11{fill:url(#SVGID_9_);}
	.st12{fill:#FFFFFF;}
	.st13{opacity:0.1;fill:url(#SVGID_10_);}
	.st14{opacity:0.1;fill:url(#SVGID_11_);}
	.st15{opacity:0.1;fill:url(#SVGID_12_);}
	.st16{fill:url(#SVGID_13_);}
	.st17{fill:url(#SVGID_14_);}
	.st18{fill:url(#SVGID_15_);}
	.st19{fill:url(#SVGID_16_);}
	.st20{fill:url(#SVGID_17_);}
	.st21{fill:url(#SVGID_18_);}
	.st22{fill:url(#SVGID_19_);}
	.st23{fill:url(#SVGID_20_);}
	.st24{fill:url(#SVGID_21_);}
	.st25{clip-path:url(#SVGID_23_);}
	.st26{fill:url(#SVGID_24_);}
</style>
<g>
	<linearGradient id="SVGID_1_" gradientUnits="userSpaceOnUse" x1="899.9005" y1="700.4359" x2="899.9005" y2="441.3913">
		<stop  offset="0" style="stop-color:#147CA6;stop-opacity:0"/>
		<stop  offset="1" style="stop-color:#2E2F7C"/>
	</linearGradient>
	<polygon class="st0" points="732.6,692.1 793.5,604.8 840.2,669 942.4,536.1 1067.2,705.2 968.2,861.3 809.4,836 	"/>
	<linearGradient id="SVGID_2_" gradientUnits="userSpaceOnUse" x1="425.2393" y1="736.2823" x2="425.2393" y2="104.7881">
		<stop  offset="0" style="stop-color:#147CA6;stop-opacity:0"/>
		<stop  offset="1" style="stop-color:#2E2F7C"/>
	</linearGradient>
	<polygon class="st1" points="859.5,881.7 599.3,492.9 568.3,533.2 433.4,319.6 368.6,374.4 271.6,230.3 171.6,191.2 -9,355 
		-9,881.7 	"/>
	<linearGradient id="SVGID_3_" gradientUnits="userSpaceOnUse" x1="-8.9738" y1="467.5194" x2="455.6156" y2="467.5194">
		<stop  offset="0" style="stop-color:#D7D5EB"/>
		<stop  offset="1" style="stop-color:#147CA6;stop-opacity:0"/>
	</linearGradient>
	<polygon class="st2" points="171.6,191.2 221.6,298.2 202.9,371.1 260,451.2 260,578.5 455.6,743.9 -9,743.9 -9,355 	"/>
	<g>
		<rect x="73.6" y="629.8" class="st3" width="7.3" height="25.8"/>
		<polygon class="st3" points="56.8,646.8 77.3,597.7 97.7,646.8 		"/>
		<polygon class="st3" points="61.2,625.7 77.3,589.1 93.4,625.7 		"/>
		<polygon class="st3" points="65.6,606.7 77.3,581.7 88.9,606.7 		"/>
	</g>
	<g>
		<rect x="114.9" y="636.4" class="st3" width="5.5" height="19.6"/>
		<polygon class="st3" points="102.1,649.4 117.6,612 133.2,649.4 		"/>
		<polygon class="st3" points="105.4,633.3 117.6,605.4 129.9,633.3 		"/>
		<polygon class="st3" points="108.8,618.9 117.6,599.8 126.5,618.9 		"/>
	</g>
	<linearGradient id="SVGID_4_" gradientUnits="userSpaceOnUse" x1="1311.7697" y1="806.5836" x2="1311.7697" y2="-14.0266">
		<stop  offset="0" style="stop-color:#147CA6;stop-opacity:0"/>
		<stop  offset="1" style="stop-color:#2E2F7C"/>
	</linearGradient>
	<polygon class="st4" points="1760.8,308.4 1629.3,98.2 1461.6,350.9 1363.9,272.3 862.7,995.6 1760.8,995.6 	"/>
	<linearGradient id="SVGID_5_" gradientUnits="userSpaceOnUse" x1="1593.1935" y1="365.8667" x2="1760.8087" y2="365.8667">
		<stop  offset="0" style="stop-color:#D7D5EB"/>
		<stop  offset="1" style="stop-color:#147CA6;stop-opacity:0"/>
	</linearGradient>
	<polygon class="st5" points="1629.3,98.2 1646.8,210.7 1613.1,286.4 1630,343.4 1593.2,508.7 1646.8,633.5 1760.8,633.5 
		1760.8,308.4 	"/>
	<linearGradient id="SVGID_6_" gradientUnits="userSpaceOnUse" x1="1363.9283" y1="382.6442" x2="1461.5903" y2="382.6442">
		<stop  offset="0" style="stop-color:#D7D5EB"/>
		<stop  offset="1" style="stop-color:#147CA6;stop-opacity:0"/>
	</linearGradient>
	<polygon class="st6" points="1363.9,272.3 1363.9,338.4 1389.7,362.1 1389.7,419.1 1382.8,492.9 1461.6,350.9 	"/>
	<g>
		<g>
			<path class="st3" d="M1696.6,743.6C1696.7,743.8,1696.7,743.7,1696.6,743.6c0.1,0.1,0.1,0,0.1-0.1c0-0.1,0.1-0.3,0.1-0.4
				c0-0.3,0.1-0.6,0.1-0.9c0-0.7-0.1-1.4-0.2-2.1c-0.3-1.4-0.8-2.9-1.5-4.4c-0.7-1.5-1.6-2.9-2.7-4.3c-0.5-0.7-1.1-1.3-1.7-2
				l-1.9-1.9c0.9,0.2,1.8,0.5,2.6,0.8c0.9,0.3,1.8,0.6,2.6,1c1.7,0.8,3.5,1.6,5.1,2.8c1.6,1.1,3.2,2.5,4.7,4.1
				c0.7,0.8,1.4,1.7,2,2.7c0.3,0.5,0.6,1,0.9,1.6c0.1,0.3,0.3,0.6,0.4,0.9c0.1,0.2,0.1,0.3,0.2,0.5c0.1,0.2,0.1,0.3,0.2,0.7
				L1696.6,743.6z"/>
		</g>
		<g>
			<path class="st3" d="M1696.5,733.4c0.2-0.6,0.3-1.3,0.4-2c0.1-0.7,0.1-1.5,0.1-2.2c0-1.5-0.2-3-0.6-4.5c1.1,1.1,2.1,2.4,2.9,3.9
				c0.4,0.7,0.7,1.5,1.1,2.3c0.3,0.8,0.6,1.5,0.8,2.5L1696.5,733.4z"/>
		</g>
		<g>
			<path class="st3" d="M1698,733c0.8-1.5,1.6-3,2.4-4.4c0.8-1.4,1.7-2.9,2.6-4.2c-0.2,1.6-0.3,3.3-0.4,4.9
				c-0.1,1.6-0.1,3.3-0.1,4.9L1698,733z"/>
		</g>
		<g>
			<path class="st3" d="M1700,732.3c0.8-0.8,1.5-1.3,2.4-1.9c0.8-0.5,1.6-1,2.5-1.5c0.8-0.4,1.7-0.8,2.6-1c0.9-0.3,1.8-0.4,2.7-0.5
				c-0.8,0.4-1.5,0.9-2.2,1.5c-0.6,0.6-1.2,1.2-1.8,1.8c-0.5,0.7-1,1.3-1.4,2c-0.4,0.7-0.8,1.5-1,2.1L1700,732.3z"/>
		</g>
	</g>
	<linearGradient id="SVGID_7_" gradientUnits="userSpaceOnUse" x1="1707.7225" y1="737.6671" x2="1511.3187" y2="1024.3605">
		<stop  offset="0" style="stop-color:#1B315D"/>
		<stop  offset="1" style="stop-color:#115B79"/>
	</linearGradient>
	<polygon class="st7" points="1760.8,732.8 1481.3,732.8 1517.3,796.8 1542.7,816.1 1565.7,869.4 1616.5,917.2 1649.4,995.6 
		1760.8,995.6 	"/>
	<linearGradient id="SVGID_8_" gradientUnits="userSpaceOnUse" x1="686.7042" y1="882.6927" x2="1363.9283" y2="882.6927">
		<stop  offset="0" style="stop-color:#1B315D"/>
		<stop  offset="1" style="stop-color:#115B79"/>
	</linearGradient>
	<polygon class="st10" points="1363.9,995.6 1260.6,824.9 1061.4,769.8 1004.5,822.1 926.5,789.7 724.2,906.5 686.7,995.6 	"/>
	<linearGradient id="SVGID_9_" gradientUnits="userSpaceOnUse" x1="991.3619" y1="838.6442" x2="759.3226" y2="911.4026">
		<stop  offset="0" style="stop-color:#D7D5EB"/>
		<stop  offset="1" style="stop-color:#147CA6;stop-opacity:0"/>
	</linearGradient>
	<polygon class="st11" points="935.2,925.5 958.8,843.9 926.5,789.7 776.3,876.4 	"/>
	<g>
		<g>
			<path class="st3" d="M1088.4,911.1c0,0,0-0.3,0-0.4c0-0.2,0-0.4-0.1-0.7c0-0.5-0.1-0.9-0.2-1.4c-0.1-0.5-0.2-1-0.3-1.5
				c-0.1-0.5-0.2-1-0.3-1.5l-0.4-1.5l-0.5-1.5c-0.3-1-0.7-2-1.1-3c-1.7-4-3.9-7.8-6.5-11.4l-2.1-2.7c-0.7-0.9-1.5-1.7-2.2-2.5
				c-1.5-1.7-3.2-3.3-4.8-4.9c-0.8-0.8-1.7-1.5-2.6-2.3l-2.6-2.2c-1.8-1.4-3.7-2.7-5.6-4.1c2.1,1,4.2,1.9,6.3,3l3.1,1.7
				c1,0.6,2.1,1.1,3.1,1.8c2,1.3,4,2.5,5.9,4c0.9,0.7,1.9,1.4,2.9,2.2l2.7,2.4c3.6,3.3,6.9,6.9,9.7,11.1c0.7,1,1.4,2.1,2,3.2
				l0.9,1.7l0.9,1.7c0.3,0.6,0.6,1.2,0.8,1.8c0.3,0.6,0.5,1.2,0.7,1.8c0.2,0.6,0.5,1.3,0.7,1.9c0.1,0.3,0.2,0.7,0.3,1
				c0.1,0.4,0.2,0.7,0.3,1.3L1088.4,911.1z"/>
		</g>
		<g>
			<path class="st3" d="M1082.8,885.1c0.1-1.8,0.1-3.8,0.1-5.7c-0.1-1.9-0.3-3.9-0.6-5.8c-0.3-1.9-0.7-3.9-1.3-5.7
				c-0.6-1.9-1.3-3.7-2.2-5.5c1.2,1.6,2.3,3.3,3.3,5.1c0.9,1.8,1.8,3.7,2.5,5.6c0.7,1.9,1.3,3.9,1.8,5.9c0.5,2,0.9,4,1.1,6.2
				L1082.8,885.1z"/>
		</g>
		<g>
			<path class="st3" d="M1086.8,884.9c1.4-4.1,2.9-8,4.5-12c1.6-4,3.2-7.9,5.1-11.7c-1.1,4.1-2,8.2-2.8,12.4
				c-0.8,4.1-1.6,8.3-2.2,12.4L1086.8,884.9z"/>
		</g>
		<g>
			<path class="st3" d="M1091.5,884.3c1.6-2,3.3-3.6,5.1-5.2c1.8-1.6,3.7-3,5.7-4.3c2-1.3,4.1-2.4,6.2-3.4c2.1-1,4.4-1.6,6.6-2.1
				c-2.1,0.9-4.2,1.8-6.1,3.1c-1.9,1.3-3.7,2.6-5.3,4.2c-1.6,1.5-3.2,3.2-4.6,4.9c-1.4,1.7-2.7,3.6-3.8,5.4L1091.5,884.3z"/>
		</g>
	</g>
	<path class="st3" d="M-9,658.4c0,0,245.3-28.3,513.7,64.6c156.8,54.3,305,105.4,492.4,144.5c268.6,56,478,43.3,604.8,14.2
		c110.5-25.3,158.8-37.9,158.8-37.9v151.8H-9V658.4z"/>
	<g>
		<circle class="st12" cx="392.9" cy="191.1" r="4.4"/>
		<linearGradient id="SVGID_10_" gradientUnits="userSpaceOnUse" x1="374.8294" y1="198.8771" x2="613.75" y2="96.6227">
			<stop  offset="0" style="stop-color:#F4DDEC"/>
			<stop  offset="1" style="stop-color:#F4DDEC;stop-opacity:0"/>
		</linearGradient>
		<path class="st13" d="M609.5,99.6l-0.6-1.4l-220.6,82c-4.2,1.8-7.2,6-7.2,10.9c0,6.5,5.3,11.8,11.8,11.8c1.6,0,3.2-0.3,4.6-0.9
			L609.5,99.6z"/>
	</g>
	<g>
		<circle class="st12" cx="1158.8" cy="138.8" r="4.4"/>
		<linearGradient id="SVGID_11_" gradientUnits="userSpaceOnUse" x1="1140.7817" y1="146.5276" x2="1379.7023" y2="44.2732">
			<stop  offset="0" style="stop-color:#F4DDEC"/>
			<stop  offset="1" style="stop-color:#F4DDEC;stop-opacity:0"/>
		</linearGradient>
		<path class="st14" d="M1375.4,47.3l-0.6-1.4l-220.6,82c-4.2,1.8-7.2,6-7.2,10.9c0,6.5,5.3,11.8,11.8,11.8c1.6,0,3.2-0.3,4.6-0.9
			L1375.4,47.3z"/>
	</g>
	<g>
		<circle class="st12" cx="714.4" cy="540.4" r="4.4"/>
		<linearGradient id="SVGID_12_" gradientUnits="userSpaceOnUse" x1="696.3874" y1="548.0809" x2="935.3081" y2="445.8264">
			<stop  offset="0" style="stop-color:#F4DDEC"/>
			<stop  offset="1" style="stop-color:#F4DDEC;stop-opacity:0"/>
		</linearGradient>
		<path class="st15" d="M931,448.8l-0.6-1.4l-220.6,82c-4.2,1.8-7.2,6-7.2,10.9c0,6.5,5.3,11.8,11.8,11.8c1.6,0,3.2-0.3,4.6-0.9
			L931,448.8z"/>
	</g>
	<g>
		<linearGradient id="SVGID_13_" gradientUnits="userSpaceOnUse" x1="1595.2152" y1="706.2545" x2="1595.2152" y2="733.5297">
			<stop  offset="0" style="stop-color:#1B315D"/>
			<stop  offset="1" style="stop-color:#203D76"/>
		</linearGradient>
		<rect x="1590.2" y="698.4" class="st16" width="10.1" height="35.6"/>
		<linearGradient id="SVGID_14_" gradientUnits="userSpaceOnUse" x1="1595.2152" y1="688.958" x2="1595.2152" y2="716.4987">
			<stop  offset="0" style="stop-color:#1B315D"/>
			<stop  offset="1" style="stop-color:#203D76"/>
		</linearGradient>
		<polygon class="st17" points="1566.9,722.1 1595.2,654.1 1623.5,722.1 		"/>
		<linearGradient id="SVGID_15_" gradientUnits="userSpaceOnUse" x1="1595.2152" y1="667.2051" x2="1595.2152" y2="688.5185">
			<stop  offset="0" style="stop-color:#1B315D"/>
			<stop  offset="1" style="stop-color:#203D76"/>
		</linearGradient>
		<polygon class="st18" points="1572.9,692.8 1595.2,642.2 1617.5,692.8 		"/>
		<linearGradient id="SVGID_16_" gradientUnits="userSpaceOnUse" x1="1587.4923" y1="634.7617" x2="1594.0045" y2="661.6066">
			<stop  offset="0" style="stop-color:#1B315D"/>
			<stop  offset="1" style="stop-color:#203D76"/>
		</linearGradient>
		<polygon class="st19" points="1579.1,666.6 1595.2,632 1611.3,666.6 		"/>
	</g>
	<g>
		<linearGradient id="SVGID_17_" gradientUnits="userSpaceOnUse" x1="1560.5643" y1="713.9287" x2="1560.5643" y2="733.6777">
			<stop  offset="0" style="stop-color:#1B315D"/>
			<stop  offset="1" style="stop-color:#203D76"/>
		</linearGradient>
		<rect x="1556.9" y="708.3" class="st20" width="7.3" height="25.8"/>
		<linearGradient id="SVGID_18_" gradientUnits="userSpaceOnUse" x1="1560.5648" y1="701.4048" x2="1560.5648" y2="721.3461">
			<stop  offset="0" style="stop-color:#1B315D"/>
			<stop  offset="1" style="stop-color:#203D76"/>
		</linearGradient>
		<polygon class="st21" points="1540.1,725.4 1560.6,676.1 1581,725.4 		"/>
		<linearGradient id="SVGID_19_" gradientUnits="userSpaceOnUse" x1="1560.5648" y1="685.6544" x2="1560.5648" y2="701.0869">
			<stop  offset="0" style="stop-color:#1B315D"/>
			<stop  offset="1" style="stop-color:#203D76"/>
		</linearGradient>
		<polygon class="st22" points="1544.4,704.2 1560.6,667.5 1576.7,704.2 		"/>
		<linearGradient id="SVGID_20_" gradientUnits="userSpaceOnUse" x1="1554.973" y1="662.1632" x2="1559.6881" y2="681.5999">
			<stop  offset="0" style="stop-color:#1B315D"/>
			<stop  offset="1" style="stop-color:#203D76"/>
		</linearGradient>
		<polygon class="st23" points="1548.9,685.2 1560.6,660.1 1572.2,685.2 		"/>
	</g>
	<linearGradient id="SVGID_21_" gradientUnits="userSpaceOnUse" x1="568.2982" y1="564.4041" x2="622.024" y2="564.4041">
		<stop  offset="0" style="stop-color:#D7D5EB"/>
		<stop  offset="1" style="stop-color:#147CA6;stop-opacity:0"/>
	</linearGradient>
	<polygon class="st24" points="568.3,533.2 622,635.9 609.5,579.3 615.4,557.8 602.9,536.1 599.3,492.9 	"/>
	<g>
		<defs>
			<polygon id="SVGID_22_" points="1268.9,410.9 990.5,817.1 700.1,817.1 700.1,264.5 1263,264.5 			"/>
		</defs>
		<clipPath id="SVGID_23_">
			<use xlink:href="#SVGID_22_"  style="overflow:visible;"/>
		</clipPath>
		<g class="st25">
			<path class="st9" d="M1118.2,498.7c0,36.7-29.8,66.5-66.5,66.5c-36.7,0-66.5-29.8-66.5-66.5s29.8-66.5,66.5-66.5
				C1088.5,432.2,1118.2,462,1118.2,498.7z"/>
		</g>
	</g>
	<linearGradient id="SVGID_24_" gradientUnits="userSpaceOnUse" x1="1092.1495" y1="802.2077" x2="996.1074" y2="832.3228">
		<stop  offset="0" style="stop-color:#D7D5EB"/>
		<stop  offset="1" style="stop-color:#147CA6;stop-opacity:0"/>
	</linearGradient>
	<polygon class="st26" points="1004.5,822.1 1072,850.5 1085.1,824.9 1061.4,810 1061.4,769.8 	"/>
	<path class="st9" d="M958.1,496.4c0,1-0.8,1.8-1.8,1.8c-1,0-1.8-0.8-1.8-1.8c0-1,0.8-1.8,1.8-1.8
		C957.4,494.7,958.1,495.5,958.1,496.4z"/>
	<path class="st9" d="M1432.3,161.8c0,1-0.8,1.8-1.8,1.8c-1,0-1.8-0.8-1.8-1.8c0-1,0.8-1.8,1.8-1.8
		C1431.5,160.1,1432.3,160.9,1432.3,161.8z"/>
	<path class="st9" d="M827,282.5c0,1-0.8,1.8-1.8,1.8c-1,0-1.8-0.8-1.8-1.8c0-1,0.8-1.8,1.8-1.8C826.2,280.7,827,281.5,827,282.5z"
		/>
	<path class="st9" d="M498.9,285.2c0,1.5-1.2,2.6-2.6,2.6c-1.5,0-2.6-1.2-2.6-2.6c0-1.5,1.2-2.6,2.6-2.6
		C497.7,282.6,498.9,283.8,498.9,285.2z"/>
	<path class="st9" d="M294.5,13.7c0,1-0.8,1.8-1.8,1.8c-1,0-1.8-0.8-1.8-1.8s0.8-1.8,1.8-1.8C293.7,11.9,294.5,12.7,294.5,13.7z"/>
	<path class="st9" d="M67.7,163.6c0,1-0.8,1.8-1.8,1.8c-1,0-1.8-0.8-1.8-1.8c0-1,0.8-1.8,1.8-1.8C66.9,161.8,67.7,162.6,67.7,163.6z
		"/>
	<g>
		<path class="st3" d="M419.1,718.6c0,0.2,0.1,0,0.1-0.1c0-0.1,0.1-0.2,0.1-0.3c0.1-0.2,0.2-0.5,0.3-0.8c0.2-0.5,0.3-1.1,0.4-1.7
			l0.2-0.9l0.1-0.9c0.1-0.6,0.1-1.2,0.1-1.9c0.1-2.6-0.2-5.2-0.8-7.9l-0.5-2c-0.2-0.7-0.4-1.3-0.6-2c-0.4-1.3-1-2.6-1.5-3.9
			c-0.5-1.3-1.2-2.6-1.8-3.9c-0.7-1.3-1.4-2.5-2.2-3.8c1.1,1,2.2,1.9,3.3,2.9c1,1.1,2.1,2.1,3.1,3.2c1,1.1,2,2.3,2.8,3.5
			c0.4,0.6,0.9,1.2,1.3,1.9l1.2,2c1.6,2.7,2.9,5.6,3.9,8.7c0.2,0.8,0.5,1.6,0.6,2.4l0.3,1.2l0.2,1.3c0.1,0.8,0.2,1.7,0.3,2.6
			c0,0.5,0,0.9,0,1.4c0,0.2,0,0.5,0,0.7c0,0.3,0,0.5-0.1,1L419.1,718.6z"/>
	</g>
	<g>
		<path class="st3" d="M1362.7,914.6c0,0.2,0,0.1,0.1,0.1c0,0,0.1-0.1,0.1-0.1c0.1-0.1,0.1-0.2,0.2-0.3c0.1-0.2,0.3-0.5,0.4-0.8
			c0.2-0.6,0.4-1.2,0.5-1.9c0.3-1.3,0.3-2.8,0.2-4.3c-0.1-1.5-0.4-3.1-0.9-4.7c-0.2-0.8-0.5-1.6-0.8-2.4l-1-2.3
			c0.7,0.5,1.4,1,2.1,1.5c0.7,0.6,1.4,1.1,2,1.7c1.3,1.2,2.6,2.5,3.7,4.1c1.1,1.5,2.1,3.2,2.9,5.2c0.4,1,0.7,2,0.9,3.1
			c0.1,0.5,0.2,1.1,0.3,1.7c0,0.3,0.1,0.6,0.1,0.9c0,0.2,0,0.3,0,0.5c0,0.2,0,0.3-0.1,0.7L1362.7,914.6z"/>
	</g>
	<g>
		<path class="st3" d="M422.6,702.5c0.5-0.9,1-2.1,1.4-3.2c0.4-1.1,0.8-2.3,1.1-3.4c0.3-1.2,0.5-2.4,0.7-3.6
			c0.2-1.2,0.2-2.5,0.1-3.7c0.4,1.2,0.8,2.4,1,3.7c0.2,1.3,0.4,2.6,0.4,3.8c0.1,1.3,0.1,2.6,0,3.9c-0.1,1.3-0.2,2.6-0.5,4
			L422.6,702.5z"/>
	</g>
	<g>
		<path class="st3" d="M425.1,703c1.8-2,3.7-3.9,5.6-5.8c1.9-1.9,3.8-3.7,5.8-5.5c-1.4,2.3-2.7,4.5-4,6.9c-1.2,2.3-2.5,4.7-3.6,7
			L425.1,703z"/>
	</g>
	<g>
		<path class="st3" d="M428.2,703.4c1.5-0.8,2.9-1.3,4.3-1.8c1.4-0.5,2.9-0.8,4.4-1.1c1.5-0.3,3-0.4,4.4-0.4c1.5,0,2.9,0.2,4.3,0.4
			c-1.4,0.1-2.8,0.3-4.2,0.7c-1.3,0.4-2.7,0.9-3.9,1.5c-1.2,0.6-2.4,1.3-3.6,2c-1.1,0.7-2.3,1.6-3.1,2.4L428.2,703.4z"/>
	</g>
	<g>
		<path class="st3" d="M1368.9,915.3c0.3-1.5,0.7-2.8,1.1-4.1c0.5-1.3,1-2.6,1.6-3.8c0.6-1.2,1.4-2.4,2.2-3.4c0.8-1.1,1.8-2,2.7-2.9
			c-0.7,1.1-1.3,2.2-1.7,3.4c-0.4,1.2-0.8,2.4-1,3.6c-0.2,1.2-0.4,2.5-0.4,3.7c0,1.2,0,2.5,0.1,3.6L1368.9,915.3z"/>
	</g>
	<g>
		<path class="st3" d="M753.5,813.6C753.5,813.8,753.6,813.6,753.5,813.6c0.1,0,0.2-0.1,0.2-0.2c0.1-0.1,0.2-0.4,0.2-0.5
			c0.1-0.4,0.3-0.8,0.4-1.3c0.2-0.9,0.4-1.9,0.5-2.9c0.2-2,0-4.1-0.3-6.3l-0.3-1.6c-0.1-0.5-0.3-1.1-0.4-1.6
			c-0.3-1.1-0.7-2.1-1.1-3.2c-0.4-1.1-0.9-2.1-1.4-3.2l-1.6-3.1c0.9,0.7,1.8,1.5,2.7,2.3c0.8,0.8,1.8,1.6,2.6,2.5
			c0.8,0.9,1.7,1.8,2.4,2.8c0.4,0.5,0.8,1,1.1,1.5l1.1,1.6c1.4,2.2,2.5,4.5,3.4,7.1c0.4,1.3,0.8,2.6,1,4c0.1,0.7,0.2,1.4,0.3,2.2
			c0,0.4,0.1,0.8,0,1.2c0,0.2,0,0.4,0,0.6c0,0.3,0,0.4-0.1,0.9L753.5,813.6z"/>
	</g>
	<g>
		<path class="st3" d="M761,814.1c0.3-2.1,0.8-3.8,1.3-5.7c0.6-1.8,1.3-3.6,2.1-5.3c0.8-1.7,1.8-3.3,2.8-4.9
			c1.1-1.5,2.3-2.9,3.6-4.1c-1,1.5-2,3.1-2.6,4.7c-0.7,1.7-1.3,3.3-1.6,5.1c-0.4,1.7-0.7,3.5-0.8,5.2c-0.2,1.7-0.2,3.5-0.1,5.1
			L761,814.1z"/>
	</g>
</g>
</svg>
