<?xml version="1.0" encoding="utf-8"?>
<!-- Generator: Adobe Illustrator 22.0.0, SVG Export Plug-In . SVG Version: 6.00 Build 0)  -->
<svg version="1.1" xmlns="http://www.w3.org/2000/svg" xmlns:xlink="http://www.w3.org/1999/xlink" x="0px" y="0px"
	 viewBox="0 0 145 101" style="enable-background:new 0 0 145 101;" xml:space="preserve">
<style type="text/css">
	.st0{display:none;}
	.st1{display:inline;fill:#3949AB;}
	.st2{fill:none;stroke:#AFAFAF;stroke-width:8;stroke-miterlimit:10;}
	.st3{fill:#B39DDB;}
	.st4{fill:url(#SVGID_1_);}
	.st5{fill:url(#SVGID_2_);}
	.st6{fill:url(#SVGID_3_);}
	.st7{fill:url(#SVGID_4_);}
	.st8{fill:#FFECB3;}
	.st9{fill:#FFF8E1;}
	.st10{fill:#02366C;}
	.st11{opacity:0.42;fill:#B2EBF2;}
	.st12{opacity:0.64;fill:#B2EBF2;}
	.st13{fill:none;stroke:#B2B2B2;stroke-width:8;stroke-miterlimit:10;}
	.st14{fill:#E040FB;}
	.st15{fill:url(#SVGID_5_);}
	.st16{fill:#7B0A93;}
	.st17{fill:#087B87;}
	.st18{fill:#FFE0B2;}
	.st19{fill:#0D47A1;}
	.st20{display:inline;}
	.st21{fill:#FFFFFF;}
	.st22{fill:#6B6B6B;}
	.st23{fill:url(#SVGID_6_);}
	.st24{fill:url(#SVGID_7_);}
	.st25{fill:url(#SVGID_8_);}
	.st26{fill:url(#SVGID_9_);}
	.st27{fill:none;stroke:#B5B5B5;stroke-width:3;stroke-miterlimit:10;}
	.st28{fill:none;stroke:#37474F;stroke-width:2;stroke-miterlimit:10;}
	.st29{fill:#25B0C8;}
	.st30{fill:#FF7553;}
	.st31{fill:url(#SVGID_10_);}
	.st32{fill:url(#SVGID_11_);}
	.st33{fill:none;stroke:#FFF8E1;stroke-width:2;stroke-miterlimit:10;}
	.st34{fill:url(#SVGID_12_);}
	.st35{fill:url(#SVGID_13_);}
	.st36{fill:url(#SVGID_14_);}
	.st37{fill:#154577;}
	.st38{fill:none;stroke:#9C9EA0;stroke-width:2;stroke-miterlimit:10;}
	.st39{fill:#139AA8;}
	.st40{fill:url(#SVGID_15_);}
	.st41{fill:#FFCCBC;}
	.st42{fill:url(#SVGID_16_);}
	.st43{fill:url(#SVGID_17_);}
	.st44{fill:url(#SVGID_18_);}
	.st45{fill:url(#SVGID_19_);}
	.st46{fill:#ECEFF1;}
	.st47{fill:#B2EBF2;}
	.st48{fill:#E22970;}
	.st49{fill:url(#SVGID_20_);}
	.st50{fill:url(#SVGID_21_);}
	.st51{fill:#FAFAFA;}
	.st52{fill:url(#SVGID_22_);}
	.st53{fill:url(#SVGID_23_);}
	.st54{fill:url(#SVGID_24_);}
	.st55{fill:url(#SVGID_25_);}
	.st56{fill:url(#SVGID_26_);}
	.st57{fill:url(#SVGID_27_);}
	.st58{fill:url(#SVGID_28_);}
	.st59{fill:url(#SVGID_29_);}
	.st60{fill:url(#SVGID_30_);}
	.st61{fill:url(#SVGID_31_);}
	.st62{fill:url(#SVGID_32_);}
	.st63{fill:url(#SVGID_33_);}
	.st64{fill:url(#SVGID_34_);}
	.st65{clip-path:url(#SVGID_36_);fill:#EFEFEF;}
	.st66{clip-path:url(#SVGID_36_);}
	.st67{opacity:0.88;fill:#E0F7FA;}
	.st68{fill:none;stroke:#026689;stroke-width:10;stroke-miterlimit:10;}
	.st69{fill:url(#SVGID_37_);}
	.st70{fill:url(#SVGID_38_);}
	.st71{fill:url(#SVGID_39_);}
	.st72{fill:none;stroke:#FFF8E1;stroke-width:4;stroke-miterlimit:10;}
	.st73{fill:url(#SVGID_40_);}
	.st74{fill:url(#SVGID_41_);}
	.st75{fill:url(#SVGID_42_);}
	.st76{fill:none;stroke:#FFFFFF;stroke-width:4;stroke-miterlimit:10;}
	.st77{fill:url(#SVGID_43_);}
	.st78{fill:url(#SVGID_44_);}
	.st79{fill:url(#SVGID_45_);}
	.st80{fill:url(#SVGID_46_);}
	.st81{fill:url(#SVGID_47_);}
	.st82{fill:url(#SVGID_48_);}
	.st83{fill:#DBDBDB;}
	.st84{fill:url(#SVGID_49_);}
	.st85{fill:url(#SVGID_50_);}
	.st86{clip-path:url(#SVGID_52_);fill:#EFEFEF;}
	.st87{clip-path:url(#SVGID_52_);}
	.st88{fill:url(#SVGID_53_);}
	.st89{fill:url(#SVGID_54_);}
	.st90{fill:url(#SVGID_55_);}
	.st91{fill:url(#SVGID_56_);}
	.st92{fill:url(#SVGID_57_);}
	.st93{fill:url(#SVGID_58_);}
	.st94{fill:url(#SVGID_59_);}
	.st95{fill:url(#SVGID_60_);}
	.st96{fill:url(#SVGID_61_);}
	.st97{fill:url(#SVGID_62_);}
	.st98{fill:url(#SVGID_63_);}
	.st99{fill:url(#SVGID_64_);}
	.st100{fill:url(#SVGID_65_);}
	.st101{fill:url(#SVGID_66_);}
	.st102{clip-path:url(#SVGID_68_);fill:#EFEFEF;}
	.st103{clip-path:url(#SVGID_68_);}
	.st104{fill:url(#SVGID_69_);}
	.st105{fill:url(#SVGID_70_);}
	.st106{fill:url(#SVGID_71_);}
	.st107{fill:url(#SVGID_72_);}
	.st108{fill:url(#SVGID_73_);}
	.st109{fill:url(#SVGID_74_);}
	.st110{fill:url(#SVGID_75_);}
	.st111{fill:url(#SVGID_76_);}
	.st112{fill:url(#SVGID_77_);}
	.st113{fill:url(#SVGID_78_);}
	.st114{fill:url(#SVGID_79_);}
	.st115{fill:url(#SVGID_80_);}
	.st116{fill:url(#SVGID_81_);}
	.st117{fill:#303F9F;}
	.st118{fill:url(#SVGID_82_);}
	.st119{fill:url(#SVGID_83_);}
	.st120{clip-path:url(#SVGID_85_);fill:#EFEFEF;}
	.st121{clip-path:url(#SVGID_85_);}
	.st122{fill:url(#SVGID_86_);}
	.st123{fill:url(#SVGID_87_);}
	.st124{fill:url(#SVGID_88_);}
	.st125{fill:url(#SVGID_89_);}
	.st126{fill:url(#SVGID_90_);}
	.st127{fill:url(#SVGID_91_);}
	.st128{fill:url(#SVGID_92_);}
	.st129{fill:url(#SVGID_93_);}
	.st130{fill:url(#SVGID_94_);}
	.st131{fill:url(#SVGID_95_);}
	.st132{fill:url(#SVGID_96_);}
	.st133{fill:url(#SVGID_97_);}
	.st134{fill:url(#SVGID_98_);}
	.st135{fill:url(#SVGID_99_);}
	.st136{fill:url(#SVGID_100_);}
	.st137{fill:#F5F5F5;}
	.st138{fill:#063982;}
	.st139{fill:#A5A5A5;}
	.st140{fill:#CCCCCC;}
	.st141{fill:#8C8C8C;}
	.st142{fill:#F57C00;}
	.st143{fill:#B25400;}
	.st144{fill:url(#SVGID_101_);}
	.st145{fill:url(#SVGID_102_);}
	.st146{fill:#EFEFEF;}
	.st147{fill:url(#SVGID_103_);}
	.st148{fill:none;stroke:#565656;stroke-width:3;stroke-linecap:round;stroke-linejoin:round;stroke-miterlimit:10;}
	.st149{fill:#BDBDBD;}
	.st150{fill:#E8E8E8;}
	.st151{fill:#F7F7F7;}
	.st152{clip-path:url(#SVGID_105_);}
	.st153{fill:#D1D1D1;}
	.st154{fill:#FF3D00;}
	.st155{clip-path:url(#SVGID_107_);}
	.st156{fill:none;stroke:#FDD835;stroke-width:2;stroke-miterlimit:10;}
	.st157{fill:#26C6DA;}
	.st158{fill:#FFECCA;}
	.st159{fill:url(#SVGID_108_);}
	.st160{fill:#546E7A;}
	.st161{fill:url(#SVGID_109_);}
	.st162{fill:#00555B;}
	.st163{fill:#FFD600;}
	.st164{fill:url(#SVGID_110_);}
	.st165{fill:url(#SVGID_111_);}
	.st166{fill:url(#SVGID_112_);}
	.st167{fill:url(#SVGID_113_);}
	.st168{fill:url(#SVGID_114_);}
	.st169{fill:#D3D3D3;}
	.st170{fill:#BCBCBC;}
	.st171{fill:url(#SVGID_115_);}
	.st172{fill:url(#SVGID_116_);}
	.st173{fill:url(#SVGID_117_);}
	.st174{fill:url(#SVGID_118_);}
	.st175{fill:url(#SVGID_119_);}
	.st176{fill:url(#SVGID_120_);}
	.st177{fill:url(#SVGID_121_);}
	.st178{fill:url(#SVGID_122_);}
	.st179{fill:url(#SVGID_123_);}
	.st180{fill:url(#SVGID_124_);}
	.st181{fill:url(#SVGID_125_);}
	.st182{fill:#0277BD;}
	.st183{fill:#046799;}
	.st184{fill:#455A64;}
	.st185{fill:url(#SVGID_126_);}
	.st186{fill:url(#SVGID_127_);}
	.st187{fill:url(#SVGID_128_);}
	.st188{fill:url(#SVGID_129_);}
	.st189{fill:none;stroke:#FFFFFF;stroke-width:2;stroke-miterlimit:10;}
	.st190{fill:#2F4249;}
	.st191{fill:#D84315;}
	.st192{fill:none;stroke:#FFFFFF;stroke-linecap:round;stroke-linejoin:round;stroke-miterlimit:10;}
	.st193{fill:none;stroke:#EFEBE9;stroke-width:0.25;stroke-miterlimit:10;}
	.st194{fill:url(#SVGID_130_);}
	.st195{fill:url(#SVGID_131_);}
	.st196{fill:url(#SVGID_132_);}
	.st197{fill:url(#SVGID_133_);}
	.st198{fill:#37474F;}
	.st199{fill:#E3E4E5;}
	.st200{fill:none;stroke:#EFEBE9;stroke-width:3;stroke-linecap:round;stroke-linejoin:round;stroke-miterlimit:10;}
	.st201{fill:none;stroke:#3A3A3A;stroke-width:3;stroke-miterlimit:10;}
	.st202{fill:none;stroke:#B7B7B7;stroke-width:0.75;stroke-miterlimit:10;}
	.st203{fill:#006064;}
	.st204{fill:#BABABA;}
	.st205{fill:#E2E2E2;}
	.st206{fill:#005959;}
	.st207{fill:#003851;}
	.st208{fill:url(#SVGID_134_);}
	.st209{fill:#424242;}
	.st210{fill:#00767C;}
	.st211{fill:url(#SVGID_135_);}
	.st212{fill:url(#SVGID_136_);}
	.st213{fill:#00838F;}
	.st214{fill:url(#SVGID_137_);}
	.st215{fill:url(#SVGID_138_);}
	.st216{fill:#F9A825;}
	.st217{fill:#F9D19B;}
	.st218{fill:none;stroke:#2E1B7F;stroke-width:3;stroke-miterlimit:10;}
	.st219{fill:#F2F2F2;}
	.st220{fill:none;stroke:#FFFFFF;stroke-width:3;stroke-miterlimit:10;}
	.st221{fill:#004F4F;}
	.st222{fill:#F2C300;}
	.st223{fill:none;stroke:#6D4C41;stroke-width:2;stroke-miterlimit:10;}
	.st224{fill:url(#SVGID_139_);}
	.st225{fill:#586AB7;}
	.st226{fill:#283593;}
	.st227{fill:none;stroke:#182C5E;stroke-width:5;stroke-miterlimit:10;}
	.st228{fill:none;stroke:#586AB7;stroke-width:8;stroke-miterlimit:10;}
	.st229{fill:none;stroke:#182C5E;stroke-width:3;stroke-miterlimit:10;}
	.st230{fill:#F9D3A0;}
	.st231{fill:#F9CC95;}
	.st232{fill:#012B3A;}
	.st233{fill:#E0E0E0;}
	.st234{fill:#B2B2B2;}
	.st235{fill:#D8D8D8;}
	.st236{fill:#BFBFBF;}
	.st237{fill:#F4F4F4;}
	.st238{fill:#525356;}
	.st239{fill:#01579B;}
	.st240{opacity:0.49;fill:#034A7A;}
	.st241{fill:#182C5E;}
	.st242{fill:#026689;}
	.st243{fill:#6D4C41;}
	.st244{fill:url(#SVGID_140_);}
	.st245{fill:url(#SVGID_141_);}
	.st246{fill:url(#SVGID_142_);}
	.st247{fill:url(#SVGID_143_);}
	.st248{fill:url(#SVGID_144_);}
	.st249{fill:url(#SVGID_145_);}
	.st250{fill:url(#SVGID_146_);}
	.st251{fill:url(#SVGID_147_);}
	.st252{fill:url(#SVGID_148_);}
	.st253{fill:#F9CD98;}
	.st254{fill:url(#SVGID_149_);}
	.st255{fill:url(#SVGID_150_);}
	.st256{fill:url(#SVGID_151_);}
	.st257{fill:none;stroke:#2F4249;stroke-width:5;stroke-miterlimit:10;}
	.st258{fill:#262524;}
	.st259{fill:none;stroke:#263238;stroke-miterlimit:10;}
	.st260{fill:url(#SVGID_152_);}
	.st261{fill:url(#SVGID_153_);}
	.st262{fill:url(#SVGID_154_);}
	.st263{fill:url(#SVGID_155_);}
	.st264{fill:url(#SVGID_156_);}
	.st265{fill:url(#SVGID_157_);}
	.st266{fill:url(#SVGID_158_);}
	.st267{fill:url(#SVGID_159_);}
	.st268{fill:url(#SVGID_160_);}
	.st269{fill:#263238;}
	.st270{fill:url(#SVGID_161_);}
	.st271{fill:url(#SVGID_162_);}
	.st272{fill:url(#SVGID_163_);}
	.st273{fill:url(#SVGID_164_);}
	.st274{fill:url(#SVGID_165_);}
	.st275{fill:url(#SVGID_166_);}
	.st276{fill:url(#SVGID_167_);}
	.st277{fill:url(#SVGID_168_);}
	.st278{clip-path:url(#SVGID_170_);fill:#F7F7F7;}
	.st279{clip-path:url(#SVGID_170_);}
	.st280{fill:url(#SVGID_171_);}
	.st281{fill:url(#SVGID_172_);}
	.st282{fill:url(#SVGID_173_);}
	.st283{fill:url(#SVGID_174_);}
	.st284{fill:url(#SVGID_175_);}
	.st285{fill:url(#SVGID_176_);}
	.st286{fill:url(#SVGID_177_);}
	.st287{fill:url(#SVGID_178_);}
	.st288{fill:url(#SVGID_179_);}
	.st289{fill:url(#SVGID_180_);}
	.st290{fill:url(#SVGID_181_);}
	.st291{fill:url(#SVGID_182_);}
	.st292{fill:url(#SVGID_183_);}
	.st293{clip-path:url(#SVGID_185_);fill:#F7F7F7;}
	.st294{clip-path:url(#SVGID_185_);}
	.st295{fill:url(#SVGID_186_);}
	.st296{fill:url(#SVGID_187_);}
	.st297{fill:url(#SVGID_188_);}
	.st298{fill:url(#SVGID_189_);}
	.st299{fill:url(#SVGID_190_);}
	.st300{fill:url(#SVGID_191_);}
	.st301{fill:url(#SVGID_192_);}
	.st302{fill:url(#SVGID_193_);}
	.st303{fill:url(#SVGID_194_);}
	.st304{fill:url(#SVGID_195_);}
	.st305{fill:url(#SVGID_196_);}
	.st306{fill:url(#SVGID_197_);}
	.st307{fill:url(#SVGID_198_);}
	.st308{clip-path:url(#SVGID_200_);fill:#F7F7F7;}
	.st309{clip-path:url(#SVGID_200_);}
	.st310{fill:url(#SVGID_201_);}
	.st311{fill:url(#SVGID_202_);}
	.st312{fill:url(#SVGID_203_);}
	.st313{fill:url(#SVGID_204_);}
	.st314{fill:url(#SVGID_205_);}
	.st315{fill:url(#SVGID_206_);}
	.st316{fill:url(#SVGID_207_);}
	.st317{fill:url(#SVGID_208_);}
	.st318{fill:url(#SVGID_209_);}
	.st319{fill:url(#SVGID_210_);}
	.st320{fill:url(#SVGID_211_);}
	.st321{fill:url(#SVGID_212_);}
	.st322{fill:url(#SVGID_213_);}
	.st323{fill:url(#SVGID_214_);}
	.st324{clip-path:url(#SVGID_216_);fill:#F7F7F7;}
	.st325{clip-path:url(#SVGID_216_);}
	.st326{fill:url(#SVGID_217_);}
	.st327{fill:url(#SVGID_218_);}
	.st328{fill:url(#SVGID_219_);}
	.st329{fill:url(#SVGID_220_);}
	.st330{fill:url(#SVGID_221_);}
	.st331{fill:url(#SVGID_222_);}
	.st332{fill:url(#SVGID_223_);}
	.st333{fill:url(#SVGID_224_);}
	.st334{fill:url(#SVGID_225_);}
	.st335{fill:url(#SVGID_226_);}
	.st336{fill:url(#SVGID_227_);}
	.st337{fill:url(#SVGID_228_);}
	.st338{fill:url(#SVGID_229_);}
	.st339{fill:url(#SVGID_230_);}
	.st340{clip-path:url(#SVGID_232_);}
	.st341{fill:url(#SVGID_233_);}
	.st342{fill:url(#SVGID_234_);}
	.st343{fill:url(#SVGID_235_);}
	.st344{fill:url(#SVGID_236_);}
	.st345{fill:url(#SVGID_237_);}
	.st346{fill:url(#SVGID_238_);}
	.st347{fill:url(#SVGID_239_);}
	.st348{fill:url(#SVGID_240_);}
	.st349{fill:url(#SVGID_241_);}
	.st350{fill:url(#SVGID_242_);}
	.st351{fill:url(#SVGID_243_);}
	.st352{fill:url(#SVGID_244_);}
</style>
<g id="Layer_1" class="st0">
</g>
<g id="Navigation">
</g>
<g id="Layer_3">
</g>
<g id="Layer_4">
</g>
<g id="Layer_5">
</g>
<g id="Layer_6">
</g>
<g id="Layer_7">
	<path class="st21" d="M92.1,94.6H53.9C30.8,94.6,12,75.8,12,52.7v0c0-23.1,18.8-41.9,41.9-41.9h38.2c23.1,0,41.9,18.8,41.9,41.9v0
		C134,75.8,115.2,94.6,92.1,94.6z"/>
	<g>
		<g>
			<path class="st19" d="M82.7,27.8c0-0.6,0.2-1,0.6-1.3c0.4-0.3,0.9-0.6,1.6-0.8l6.4-2.2c0.1,0,0.2,0,0.3,0c0.1,0,0.2,0,0.2,0
				c0.7,0,1.2,0.2,1.4,0.6c0.2,0.4,0.3,0.9,0.3,1.6l0,8.8h4.7c0.6,0,1.1,0.2,1.5,0.5c0.4,0.4,0.6,0.9,0.6,1.6v5.4
				c0,0.8-0.2,1.4-0.6,1.7c-0.4,0.4-0.9,0.5-1.5,0.5h-4.7l0,22.5c0,0.7-0.2,1.2-0.6,1.6c-0.4,0.4-1,0.5-1.7,0.5h-6.3
				c-1.4,0-2.2-0.7-2.2-2.2l0-22.5h-2c-1.4,0-2.2-0.8-2.2-2.3v-5.4c0-1.4,0.7-2.1,2.2-2.1h2L82.7,27.8z"/>
		</g>
		<path class="st19" d="M74.8,34.7H67c-0.7,0.1-1,0.4-1,1.1v4.6c0.7,1.1,1.3,2.2,1.8,3.4c1.1,2.6,1.7,5.5,1.7,8.6c0,2-0.3,4-0.8,5.8
			c-0.5,1.8-1.2,3.6-2.2,5.2c-0.2,0.3-0.4,0.6-0.6,0.9v8.1c0,0.4-0.1,0.8-0.3,1.2c-0.2,0.4-0.4,0.7-0.7,0.9c-0.3,0.3-0.6,0.5-1,0.6
			c-0.4,0.2-0.8,0.2-1.2,0.2c-0.5,0-1-0.1-1.4-0.3c-0.4-0.2-0.7-0.4-1-0.6c-0.3-0.2-0.6-0.5-0.8-0.6c-0.2-0.2-0.5-0.3-0.8-0.3
			c-0.1,0-0.3,0-0.5,0.1c-0.2,0.1-0.3,0.2-0.5,0.3l-4.6,4.3c-0.3,0.2-0.4,0.5-0.4,1c0,0.3,0,0.4,0.1,0.4c0.6,0.9,1.3,1.6,2,2.3
			c0.8,0.7,1.6,1.2,2.5,1.7c0.9,0.5,1.8,0.8,2.8,1c1,0.2,2,0.3,3,0.3c1.7,0,3.4-0.3,4.9-1c1.6-0.7,2.9-1.5,4.1-2.7
			c1.2-1.1,2.1-2.5,2.8-4c0.7-1.5,1-3.2,1-4.9V36C76.3,35.1,75.8,34.7,74.8,34.7z"/>
		<path class="st19" d="M29.5,52.3c0-1.7,0.2-3.4,0.7-5c0.4-1.6,1.1-3.1,1.8-4.4c0.8-1.4,1.7-2.6,2.9-3.7c1.1-1.1,2.3-2.1,3.7-2.8
			c1.4-0.8,2.8-1.4,4.4-1.8c1.6-0.4,3.2-0.6,4.9-0.6c2.5,0,4.9,0.5,7.1,1.4c2.2,0.9,4.2,2.2,5.8,3.9c1.7,1.7,3,3.6,3.9,5.8
			c1,2.2,1.4,4.6,1.4,7.2c0,1.7-0.2,3.4-0.7,4.9c-0.4,1.6-1.1,3-1.8,4.4c-0.8,1.4-1.7,2.6-2.9,3.7c-1.1,1.1-2.3,2.1-3.7,2.9
			c-1.4,0.8-2.8,1.4-4.4,1.8c-1.6,0.4-3.2,0.6-4.9,0.6c-1.7,0-3.4-0.2-4.9-0.6c-1.6-0.4-3-1-4.4-1.8c-1.4-0.8-2.6-1.7-3.7-2.9
			c-1.1-1.1-2.1-2.3-2.9-3.7c-0.8-1.4-1.4-2.8-1.8-4.4C29.7,55.6,29.5,54,29.5,52.3z M39.7,52.3c0,1.2,0.2,2.4,0.6,3.5
			c0.4,1.1,0.9,2,1.6,2.8c0.7,0.8,1.5,1.4,2.5,1.9c1,0.5,2.1,0.7,3.4,0.7c1.2,0,2.3-0.2,3.3-0.7c1-0.5,1.8-1.1,2.5-1.9
			c0.7-0.8,1.2-1.7,1.6-2.8c0.4-1.1,0.5-2.2,0.5-3.5c0-1.2-0.2-2.3-0.5-3.4c-0.4-1.1-0.9-2-1.6-2.9c-0.7-0.8-1.5-1.5-2.5-1.9
			c-1-0.5-2.1-0.7-3.3-0.7c-1.2,0-2.4,0.2-3.4,0.7c-1,0.5-1.8,1.1-2.5,1.9c-0.7,0.8-1.2,1.8-1.6,2.9C39.9,49.9,39.7,51.1,39.7,52.3z
			"/>
		<g>
			<linearGradient id="SVGID_1_" gradientUnits="userSpaceOnUse" x1="101.3838" y1="66.7732" x2="101.3838" y2="48.7304">
				<stop  offset="0" style="stop-color:#FCB619"/>
				<stop  offset="0.1463" style="stop-color:#F6BB1A"/>
				<stop  offset="0.5593" style="stop-color:#EBC51C"/>
				<stop  offset="1" style="stop-color:#E7C81D"/>
			</linearGradient>
			<path class="st4" d="M96.9,59.9c0.1-0.1,0.1-0.1,0.2-0.1c0.1,0,0.1,0,0.2,0h1.1c0.1,0,0.2,0,0.2,0c0.1,0,0.1,0.1,0.1,0.1
				c0,0.1,0.1,0.1,0.1,0.2c0,0.1,0.1,0.1,0.1,0.2l0.3,0.9c0.1-0.2,0.3-0.3,0.4-0.5c0.1-0.2,0.3-0.3,0.5-0.5c0.2-0.1,0.4-0.3,0.7-0.4
				c0.3-0.1,0.6-0.1,0.9-0.1c0.6,0,1.2,0.1,1.8,0.4c0.5,0.2,1,0.6,1.4,1c0.4,0.4,0.7,0.9,0.9,1.5c0.2,0.6,0.3,1.2,0.3,1.8
				c0,0.7-0.1,1.3-0.3,1.8c-0.2,0.6-0.5,1.1-0.9,1.5c-0.4,0.4-0.9,0.7-1.4,1c-0.5,0.2-1.1,0.4-1.8,0.4c-0.3,0-0.6,0-0.8-0.1
				c-0.2-0.1-0.4-0.2-0.6-0.3c-0.2-0.1-0.3-0.2-0.5-0.4c-0.1-0.1-0.3-0.3-0.4-0.4v3.3c0,0.1,0,0.3-0.1,0.4c-0.1,0.1-0.2,0.1-0.4,0.1
				h-1.6c-0.1,0-0.1,0-0.2,0c-0.1,0-0.1-0.1-0.2-0.1c-0.1,0-0.1-0.1-0.1-0.2c0-0.1-0.1-0.1-0.1-0.2V60.3c0-0.1,0-0.2,0.1-0.2
				C96.8,60,96.8,60,96.9,59.9z M103.5,64.3c0-0.3,0-0.6-0.1-0.9c-0.1-0.3-0.2-0.5-0.4-0.7c-0.2-0.2-0.4-0.4-0.6-0.5
				c-0.3-0.1-0.5-0.2-0.8-0.2c-0.3,0-0.6,0.1-0.8,0.2c-0.3,0.1-0.5,0.3-0.7,0.5c-0.2,0.2-0.4,0.4-0.5,0.7c-0.1,0.3-0.2,0.5-0.2,0.8
				v0.1c0,0.3,0.1,0.6,0.2,0.9c0.1,0.3,0.3,0.5,0.5,0.7c0.2,0.2,0.4,0.4,0.7,0.5c0.3,0.1,0.6,0.2,0.9,0.2c0.3,0,0.6-0.1,0.8-0.2
				c0.3-0.1,0.5-0.3,0.6-0.5c0.2-0.2,0.3-0.4,0.4-0.7C103.4,65,103.5,64.7,103.5,64.3z"/>
			<linearGradient id="SVGID_2_" gradientUnits="userSpaceOnUse" x1="111.654" y1="66.7731" x2="111.654" y2="48.7304">
				<stop  offset="0" style="stop-color:#FCB619"/>
				<stop  offset="0.1463" style="stop-color:#F6BB1A"/>
				<stop  offset="0.5593" style="stop-color:#EBC51C"/>
				<stop  offset="1" style="stop-color:#E7C81D"/>
			</linearGradient>
			<path class="st5" d="M110.2,60.8c0.1-0.1,0.2-0.3,0.3-0.4c0.1-0.1,0.3-0.2,0.5-0.3c0.2-0.1,0.4-0.2,0.6-0.2
				c0.2-0.1,0.5-0.1,0.7-0.1c0.5,0,1,0.1,1.4,0.3c0.4,0.2,0.8,0.5,1.1,0.9c0.3,0.4,0.5,0.8,0.7,1.3c0.2,0.5,0.2,1,0.2,1.5v4.7
				c0,0.2,0,0.3-0.1,0.4c-0.1,0.1-0.2,0.1-0.4,0.1h-1.6c-0.2,0-0.3,0-0.4-0.1c-0.1-0.1-0.1-0.2-0.1-0.4v-4.7c0-0.2,0-0.4-0.1-0.6
				c-0.1-0.2-0.2-0.3-0.3-0.5c-0.1-0.1-0.3-0.2-0.5-0.3c-0.2-0.1-0.4-0.1-0.6-0.1c-0.2,0-0.3,0-0.5,0.1c-0.2,0.1-0.3,0.2-0.4,0.3
				c-0.1,0.1-0.2,0.3-0.3,0.5c-0.1,0.2-0.1,0.4-0.2,0.6v4.7c0,0.1,0,0.2,0,0.2c0,0.1-0.1,0.1-0.1,0.2c-0.1,0-0.1,0.1-0.2,0.1
				c-0.1,0-0.1,0-0.2,0h-1.6c-0.2,0-0.4,0-0.4-0.1c-0.1-0.1-0.1-0.2-0.1-0.4v-5.8v-0.1v-2.1v0v-2.6c0-0.2,0-0.3,0.1-0.4
				c0.1-0.1,0.2-0.1,0.4-0.1h1.6c0.1,0,0.2,0,0.4,0.1c0.1,0,0.1,0.1,0.1,0.2c0,0.1,0,0.2,0,0.2V60.8z"/>
		</g>
	</g>
</g>
</svg>
