<?xml version="1.0" encoding="utf-8"?>
<!-- Generator: Adobe Illustrator 22.0.0, SVG Export Plug-In . SVG Version: 6.00 Build 0)  -->
<svg version="1.1" xmlns="http://www.w3.org/2000/svg" xmlns:xlink="http://www.w3.org/1999/xlink" x="0px" y="0px"
	 viewBox="0 0 236 227" style="enable-background:new 0 0 236 227;" xml:space="preserve">
<style type="text/css">
	.st0{display:none;}
	.st1{display:inline;fill:#3949AB;}
	.st2{fill:none;stroke:#AFAFAF;stroke-width:8;stroke-miterlimit:10;}
	.st3{fill:#B39DDB;}
	.st4{fill:url(#SVGID_1_);}
	.st5{fill:url(#SVGID_2_);}
	.st6{fill:url(#SVGID_3_);}
	.st7{fill:url(#SVGID_4_);}
	.st8{fill:#FFECB3;}
	.st9{fill:#FFF8E1;}
	.st10{fill:#02366C;}
	.st11{opacity:0.42;fill:#B2EBF2;}
	.st12{opacity:0.64;fill:#B2EBF2;}
	.st13{fill:none;stroke:#B2B2B2;stroke-width:8;stroke-miterlimit:10;}
	.st14{fill:#E040FB;}
	.st15{fill:url(#SVGID_5_);}
	.st16{fill:#7B0A93;}
	.st17{fill:#087B87;}
	.st18{fill:#FFE0B2;}
	.st19{fill:#0D47A1;}
	.st20{display:inline;}
	.st21{fill:#FFFFFF;}
	.st22{fill:#6B6B6B;}
	.st23{fill:url(#SVGID_6_);}
	.st24{fill:url(#SVGID_7_);}
	.st25{fill:url(#SVGID_8_);}
	.st26{fill:url(#SVGID_9_);}
	.st27{fill:none;stroke:#B5B5B5;stroke-width:3;stroke-miterlimit:10;}
	.st28{fill:none;stroke:#37474F;stroke-width:2;stroke-miterlimit:10;}
	.st29{fill:#25B0C8;}
	.st30{fill:#FF7553;}
	.st31{fill:url(#SVGID_10_);}
	.st32{fill:url(#SVGID_11_);}
	.st33{fill:none;stroke:#FFF8E1;stroke-width:2;stroke-miterlimit:10;}
	.st34{fill:url(#SVGID_12_);}
	.st35{fill:url(#SVGID_13_);}
	.st36{fill:url(#SVGID_14_);}
	.st37{fill:#154577;}
	.st38{fill:none;stroke:#9C9EA0;stroke-width:2;stroke-miterlimit:10;}
	.st39{fill:#139AA8;}
	.st40{fill:url(#SVGID_15_);}
	.st41{fill:#FFCCBC;}
	.st42{fill:url(#SVGID_16_);}
	.st43{fill:url(#SVGID_17_);}
	.st44{fill:url(#SVGID_18_);}
	.st45{fill:url(#SVGID_19_);}
	.st46{fill:#ECEFF1;}
	.st47{fill:#B2EBF2;}
	.st48{fill:#E22970;}
	.st49{fill:url(#SVGID_20_);}
	.st50{fill:url(#SVGID_21_);}
	.st51{fill:#FAFAFA;}
	.st52{fill:url(#SVGID_22_);}
	.st53{fill:url(#SVGID_23_);}
	.st54{fill:url(#SVGID_24_);}
	.st55{fill:url(#SVGID_25_);}
	.st56{fill:url(#SVGID_26_);}
	.st57{fill:url(#SVGID_27_);}
	.st58{fill:url(#SVGID_28_);}
	.st59{fill:url(#SVGID_29_);}
	.st60{fill:url(#SVGID_30_);}
	.st61{fill:url(#SVGID_31_);}
	.st62{fill:url(#SVGID_32_);}
	.st63{fill:url(#SVGID_33_);}
	.st64{fill:url(#SVGID_34_);}
	.st65{clip-path:url(#SVGID_36_);fill:#EFEFEF;}
	.st66{clip-path:url(#SVGID_36_);}
	.st67{opacity:0.88;fill:#E0F7FA;}
	.st68{fill:none;stroke:#026689;stroke-width:10;stroke-miterlimit:10;}
	.st69{fill:url(#SVGID_37_);}
	.st70{fill:url(#SVGID_38_);}
	.st71{fill:url(#SVGID_39_);}
	.st72{fill:none;stroke:#FFF8E1;stroke-width:4;stroke-miterlimit:10;}
	.st73{fill:url(#SVGID_40_);}
	.st74{fill:url(#SVGID_41_);}
	.st75{fill:url(#SVGID_42_);}
	.st76{fill:none;stroke:#FFFFFF;stroke-width:4;stroke-miterlimit:10;}
	.st77{fill:url(#SVGID_43_);}
	.st78{fill:url(#SVGID_44_);}
	.st79{fill:url(#SVGID_45_);}
	.st80{fill:url(#SVGID_46_);}
	.st81{fill:url(#SVGID_47_);}
	.st82{fill:url(#SVGID_48_);}
	.st83{fill:#DBDBDB;}
	.st84{fill:url(#SVGID_49_);}
	.st85{fill:url(#SVGID_50_);}
	.st86{clip-path:url(#SVGID_52_);fill:#EFEFEF;}
	.st87{clip-path:url(#SVGID_52_);}
	.st88{fill:url(#SVGID_53_);}
	.st89{fill:url(#SVGID_54_);}
	.st90{fill:url(#SVGID_55_);}
	.st91{fill:url(#SVGID_56_);}
	.st92{fill:url(#SVGID_57_);}
	.st93{fill:url(#SVGID_58_);}
	.st94{fill:url(#SVGID_59_);}
	.st95{fill:url(#SVGID_60_);}
	.st96{fill:url(#SVGID_61_);}
	.st97{fill:url(#SVGID_62_);}
	.st98{fill:url(#SVGID_63_);}
	.st99{fill:url(#SVGID_64_);}
	.st100{fill:url(#SVGID_65_);}
	.st101{fill:#303F9F;}
	.st102{fill:url(#SVGID_66_);}
	.st103{fill:url(#SVGID_67_);}
	.st104{fill:#F5F5F5;}
	.st105{fill:#063982;}
	.st106{fill:#A5A5A5;}
	.st107{fill:#CCCCCC;}
	.st108{fill:#8C8C8C;}
	.st109{fill:#F57C00;}
	.st110{fill:#B25400;}
	.st111{fill:url(#SVGID_68_);}
	.st112{fill:url(#SVGID_69_);}
	.st113{fill:#EFEFEF;}
	.st114{fill:url(#SVGID_70_);}
	.st115{fill:none;stroke:#565656;stroke-width:3;stroke-linecap:round;stroke-linejoin:round;stroke-miterlimit:10;}
	.st116{fill:#BDBDBD;}
	.st117{fill:#E8E8E8;}
	.st118{fill:#F7F7F7;}
	.st119{clip-path:url(#SVGID_72_);}
	.st120{fill:#D1D1D1;}
	.st121{fill:#FF3D00;}
	.st122{fill:none;stroke:#FDD835;stroke-width:2;stroke-miterlimit:10;}
	.st123{fill:#26C6DA;}
	.st124{fill:#FFECCA;}
	.st125{fill:url(#SVGID_73_);}
	.st126{fill:#546E7A;}
	.st127{fill:url(#SVGID_74_);}
	.st128{fill:#00555B;}
	.st129{fill:#FFD600;}
	.st130{fill:url(#SVGID_75_);}
	.st131{fill:url(#SVGID_76_);}
	.st132{fill:url(#SVGID_77_);}
	.st133{fill:url(#SVGID_78_);}
	.st134{fill:url(#SVGID_79_);}
	.st135{fill:#D3D3D3;}
	.st136{fill:#BCBCBC;}
	.st137{fill:url(#SVGID_80_);}
	.st138{fill:url(#SVGID_81_);}
	.st139{fill:url(#SVGID_82_);}
	.st140{fill:#0277BD;}
	.st141{fill:#046799;}
	.st142{fill:#455A64;}
	.st143{fill:url(#SVGID_83_);}
	.st144{fill:url(#SVGID_84_);}
	.st145{fill:url(#SVGID_85_);}
	.st146{fill:url(#SVGID_86_);}
	.st147{fill:none;stroke:#FFFFFF;stroke-width:2;stroke-miterlimit:10;}
	.st148{fill:#2F4249;}
	.st149{fill:#D84315;}
	.st150{fill:none;stroke:#FFFFFF;stroke-linecap:round;stroke-linejoin:round;stroke-miterlimit:10;}
	.st151{fill:none;stroke:#EFEBE9;stroke-width:0.25;stroke-miterlimit:10;}
	.st152{fill:#37474F;}
	.st153{fill:#E3E4E5;}
	.st154{fill:none;stroke:#EFEBE9;stroke-width:3;stroke-linecap:round;stroke-linejoin:round;stroke-miterlimit:10;}
	.st155{fill:none;stroke:#3A3A3A;stroke-width:3;stroke-miterlimit:10;}
	.st156{fill:none;stroke:#B7B7B7;stroke-width:0.75;stroke-miterlimit:10;}
</style>
<g id="Layer_1" class="st0">
</g>
<g id="Navigation">
	<g>
		<g>
			<path class="st19" d="M138.8,58.4c0-1.2,0.4-2.1,1.2-2.7c0.8-0.6,1.9-1.2,3.4-1.7l13.3-4.6c0.2,0,0.4-0.1,0.6-0.1
				c0.2,0,0.3,0,0.5,0c1.4,0,2.4,0.4,2.9,1.3c0.5,0.8,0.7,1.9,0.7,3.3l-0.1,18.5h9.8c1.2,0,2.3,0.4,3,1.1c0.8,0.7,1.2,1.9,1.2,3.3
				V88c0,1.6-0.4,2.8-1.2,3.6c-0.8,0.8-1.8,1.1-3,1.1h-9.8l0.1,47.1c0,1.5-0.4,2.6-1.3,3.4c-0.9,0.8-2.1,1.1-3.6,1.1h-13.2
				c-3,0-4.5-1.5-4.5-4.5l-0.1-47.1h-4.3c-3,0-4.5-1.6-4.5-4.7V76.7c0-3,1.5-4.5,4.5-4.5h4.3L138.8,58.4z"/>
		</g>
		<path class="st19" d="M122.2,72.8h-16.3c-1.4,0.1-2.2,0.9-2.2,2.2v9.7c1.4,2.2,2.7,4.6,3.8,7c2.4,5.5,3.6,11.6,3.6,17.9
			c0,4.2-0.5,8.3-1.6,12.2c-1.1,3.9-2.6,7.5-4.6,10.9c-0.4,0.6-0.8,1.3-1.2,1.9v17c0,0.9-0.2,1.7-0.6,2.4c-0.4,0.8-0.9,1.4-1.5,2
			c-0.6,0.6-1.3,1-2.1,1.3c-0.8,0.3-1.6,0.5-2.5,0.5c-1.1,0-2.1-0.2-2.9-0.6c-0.8-0.4-1.5-0.9-2.1-1.4c-0.6-0.5-1.2-1-1.7-1.4
			c-0.5-0.4-1-0.6-1.6-0.6c-0.3,0-0.6,0.1-0.9,0.2c-0.3,0.2-0.6,0.4-0.9,0.6l-9.7,9c-0.6,0.4-0.9,1.1-0.9,2.1c0,0.6,0.1,0.9,0.2,0.9
			c1.2,1.8,2.6,3.4,4.2,4.8c1.6,1.4,3.3,2.6,5.2,3.5c1.9,0.9,3.8,1.7,5.9,2.1c2.1,0.5,4.2,0.7,6.3,0.7c3.6,0,7.1-0.7,10.3-2.1
			c3.3-1.4,6.1-3.2,8.6-5.6c2.5-2.4,4.4-5.2,5.9-8.4c1.5-3.2,2.2-6.6,2.2-10.3v-76C125.2,73.7,124.2,72.8,122.2,72.8z"/>
		<path class="st19" d="M27.2,109.6c0-3.6,0.5-7.1,1.4-10.4c0.9-3.3,2.2-6.4,3.9-9.2c1.7-2.8,3.7-5.4,6-7.7c2.3-2.3,4.9-4.3,7.8-5.9
			c2.9-1.6,5.9-2.9,9.2-3.8c3.3-0.9,6.7-1.3,10.3-1.3c5.3,0,10.3,1,15,3c4.7,2,8.7,4.7,12.2,8.1c3.5,3.5,6.2,7.5,8.2,12.2
			c2,4.7,3,9.7,3,15.1c0,3.6-0.5,7-1.4,10.3c-0.9,3.3-2.2,6.4-3.9,9.2c-1.7,2.9-3.7,5.4-6,7.8c-2.3,2.3-4.9,4.3-7.8,6
			c-2.9,1.7-5.9,2.9-9.2,3.8c-3.3,0.9-6.7,1.3-10.2,1.3c-3.6,0-7-0.4-10.3-1.3c-3.3-0.9-6.4-2.2-9.2-3.8c-2.9-1.7-5.4-3.7-7.8-6
			c-2.3-2.3-4.3-4.9-6-7.8c-1.7-2.9-2.9-5.9-3.9-9.2C27.6,116.7,27.2,113.2,27.2,109.6z M48.6,109.6c0,2.6,0.4,5,1.2,7.2
			c0.8,2.2,1.9,4.2,3.4,5.8c1.5,1.6,3.2,2.9,5.3,3.9c2.1,1,4.4,1.4,7.1,1.4c2.5,0,4.8-0.5,6.9-1.4c2.1-1,3.8-2.3,5.2-3.9
			c1.4-1.6,2.5-3.6,3.3-5.8c0.8-2.2,1.1-4.7,1.1-7.2c0-2.5-0.4-4.9-1.1-7.1c-0.8-2.3-1.9-4.3-3.3-6c-1.4-1.7-3.2-3.1-5.2-4.1
			c-2.1-1-4.3-1.5-6.9-1.5c-2.6,0-5,0.5-7.1,1.5c-2.1,1-3.9,2.4-5.3,4.1c-1.5,1.7-2.6,3.7-3.4,6C49,104.8,48.6,107.1,48.6,109.6z"/>
		<g>
			<linearGradient id="SVGID_1_" gradientUnits="userSpaceOnUse" x1="177.8246" y1="140.0232" x2="177.8246" y2="102.2334">
				<stop  offset="0" style="stop-color:#FCB619"/>
				<stop  offset="0.1463" style="stop-color:#F6BB1A"/>
				<stop  offset="0.5593" style="stop-color:#EBC51C"/>
				<stop  offset="1" style="stop-color:#E7C81D"/>
			</linearGradient>
			<path class="st4" d="M168.3,125.7c0.1-0.1,0.3-0.2,0.4-0.2c0.1,0,0.3,0,0.4,0h2.2c0.2,0,0.3,0,0.5,0.1c0.1,0.1,0.2,0.1,0.3,0.2
				c0.1,0.1,0.1,0.2,0.2,0.4c0.1,0.1,0.1,0.3,0.2,0.4l0.6,1.8c0.3-0.4,0.6-0.7,0.8-1.1c0.3-0.4,0.6-0.7,1-1c0.4-0.3,0.8-0.6,1.4-0.8
				c0.5-0.2,1.2-0.3,2-0.3c1.4,0,2.6,0.3,3.8,0.8c1.1,0.5,2.1,1.2,3,2.1c0.8,0.9,1.5,1.9,1.9,3.1c0.5,1.2,0.7,2.5,0.7,3.8
				c0,1.4-0.2,2.6-0.7,3.8c-0.5,1.2-1.1,2.2-1.9,3.1c-0.8,0.9-1.8,1.6-3,2.1c-1.1,0.5-2.4,0.8-3.8,0.8c-0.6,0-1.2-0.1-1.7-0.2
				c-0.5-0.2-0.9-0.4-1.2-0.6c-0.4-0.2-0.7-0.5-1-0.8c-0.3-0.3-0.6-0.6-0.8-0.9v6.9c0,0.3-0.1,0.6-0.3,0.8c-0.2,0.2-0.5,0.3-0.8,0.3
				h-3.4c-0.1,0-0.2,0-0.4-0.1c-0.1-0.1-0.3-0.1-0.4-0.2c-0.1-0.1-0.2-0.2-0.3-0.3c-0.1-0.1-0.1-0.3-0.1-0.5v-22.6
				c0-0.2,0-0.4,0.1-0.5C168.1,125.9,168.2,125.8,168.3,125.7z M182.2,134.9c0-0.6-0.1-1.2-0.3-1.8c-0.2-0.6-0.5-1.1-0.9-1.5
				c-0.4-0.4-0.8-0.8-1.4-1c-0.5-0.2-1.1-0.4-1.7-0.4c-0.6,0-1.2,0.1-1.8,0.4c-0.6,0.2-1.1,0.5-1.5,1c-0.4,0.4-0.8,0.9-1,1.4
				c-0.3,0.5-0.4,1.1-0.4,1.7v0.2c0,0.7,0.1,1.3,0.4,1.8c0.2,0.6,0.6,1.1,1,1.5c0.4,0.4,0.9,0.8,1.5,1c0.6,0.2,1.2,0.4,1.8,0.4
				c0.6,0,1.2-0.1,1.7-0.4c0.5-0.2,1-0.6,1.4-1c0.4-0.4,0.7-0.9,0.9-1.5C182.1,136.2,182.2,135.6,182.2,134.9z"/>
			<linearGradient id="SVGID_2_" gradientUnits="userSpaceOnUse" x1="199.3351" y1="140.0229" x2="199.3351" y2="102.2333">
				<stop  offset="0" style="stop-color:#FCB619"/>
				<stop  offset="0.1463" style="stop-color:#F6BB1A"/>
				<stop  offset="0.5593" style="stop-color:#EBC51C"/>
				<stop  offset="1" style="stop-color:#E7C81D"/>
			</linearGradient>
			<path class="st5" d="M196.4,127.5c0.2-0.3,0.4-0.6,0.7-0.8c0.3-0.3,0.6-0.5,0.9-0.7c0.4-0.2,0.8-0.4,1.2-0.5
				c0.5-0.1,1-0.2,1.6-0.2c1.1,0,2.1,0.2,3,0.7c0.9,0.4,1.6,1,2.3,1.8c0.6,0.8,1.1,1.6,1.4,2.6c0.3,1,0.5,2.1,0.5,3.2v9.7
				c0,0.4-0.1,0.7-0.2,0.9c-0.2,0.2-0.4,0.3-0.8,0.3h-3.4c-0.4,0-0.7-0.1-0.9-0.2c-0.2-0.1-0.2-0.4-0.2-0.8v-9.8
				c0-0.4-0.1-0.8-0.2-1.2c-0.2-0.4-0.4-0.7-0.7-1c-0.3-0.3-0.6-0.5-1-0.6c-0.4-0.2-0.8-0.2-1.2-0.2c-0.4,0-0.7,0.1-1,0.2
				c-0.3,0.1-0.7,0.3-0.9,0.6c-0.3,0.3-0.5,0.6-0.7,0.9c-0.2,0.4-0.3,0.8-0.3,1.2v9.8c0,0.2,0,0.3-0.1,0.5c-0.1,0.2-0.2,0.3-0.3,0.4
				c-0.1,0.1-0.3,0.1-0.4,0.2c-0.1,0-0.2,0-0.4,0h-3.4c-0.4,0-0.7-0.1-0.9-0.3c-0.2-0.2-0.3-0.5-0.3-0.8v-12.1V131v-4.4v-0.1V121
				c0-0.3,0.1-0.6,0.3-0.8c0.2-0.2,0.5-0.3,0.9-0.3h3.4c0.2,0,0.5,0.1,0.8,0.2c0.1,0.1,0.2,0.2,0.3,0.4c0.1,0.2,0.1,0.3,0.1,0.5
				V127.5z"/>
		</g>
	</g>
</g>
<g id="Layer_3">
</g>
<g id="Layer_4">
</g>
</svg>
